{
  "accessors": [
    {
      "bufferView": 0,
      "byteOffset": 0,
      "componentType": 5126,
      "count": 24,
      "max": [
        -3.0,
        5.0,
        7.0
      ],
      "min": [
        -11.0,
        0.0,
        -7.0
      ],
      "type": "VEC3"
    },
    {
      "bufferView": 1,
      "byteOffset": 0,
      "componentType": 5126,
      "count": 24,
      "type": "VEC3"
    },
    {
      "bufferView": 2,
      "byteOffset": 0,
      "componentType": 5123,
      "count": 36,
      "type": "SCALAR"
    },
    {
      "bufferView": 0,
      "byteOffset": 288,
      "componentType": 5126,
      "count": 24,
      "max": [
        11.0,
        5.0,
        7.0
      ],
      "min": [
        3.0,
        0.0,
        -7.0
      ],
      "type": "VEC3"
    },
    {
      "bufferView": 1,
      "byteOffset": 288,
      "componentType": 5126,
      "count": 24,
      "type": "VEC3"
    },
    {
      "bufferView": 2,
      "byteOffset": 72,
      "componentType": 5123,
      "count": 36,
      "type": "SCALAR"
    },
    {
      "bufferView": 0,
      "byteOffset": 576,
      "componentType": 5126,
      "count": 24,
      "max": [
        -4.0,
        36.0,
        5.0
      ],
      "min": [
        -10.0,
        5.0,
        -5.0
      ],
      "type": "VEC3"
    },
    {
      "bufferView": 1,
      "byteOffset": 576,
      "componentType": 5126,
      "count": 24,
      "type": "VEC3"
    },
    {
      "bufferView": 2,
      "byteOffset": 144,
      "componentType": 5123,
      "count": 36,
      "type": "SCALAR"
    },
    {
      "bufferView": 0,
      "byteOffset": 864,
      "componentType": 5126,
      "count": 24,
      "max": [
        10.0,
        36.0,
        5.0
      ],
      "min": [
        4.0,
        5.0,
        -5.0
      ],
      "type": "VEC3"
    },
    {
      "bufferView": 1,
      "byteOffset": 864,
      "componentType": 5126,
      "count": 24,
      "type": "VEC3"
    },
    {
      "bufferView": 2,
      "byteOffset": 216,
      "componentType": 5123,
      "count": 36,
      "type": "SCALAR"
    },
    {
      "bufferView": 0,
      "byteOffset": 1152,
      "componentType": 5126,
      "count": 24,
      "max": [
        15.0,
        94.0,
        -8.0
      ],
      "min": [
        -15.0,
        4.0,
        -16.0
      ],
      "type": "VEC3"
    },
    {
      "bufferView": 1,
      "byteOffset": 1152,
      "componentType": 5126,
      "count": 24,
      "type": "VEC3"
    },
    {
      "bufferView": 2,
      "byteOffset": 288,
      "componentType": 5123,
      "count": 36,
      "type": "SCALAR"
    },
    {
      "bufferView": 0,
      "byteOffset": 1440,
      "componentType": 5126,
      "count": 24,
      "max": [
        -3.0,
        58.0,
        6.0
      ],
      "min": [
        -10.0,
        36.0,
        -6.0
      ],
      "type": "VEC3"
    },
    {
      "bufferView": 1,
      "byteOffset": 1440,
      "componentType": 5126,
      "count": 24,
      "type": "VEC3"
    },
    {
      "bufferView": 2,
      "byteOffset": 360,
      "componentType": 5123,
      "count": 36,
      "type": "SCALAR"
    },
    {
      "bufferView": 0,
      "byteOffset": 1728,
      "componentType": 5126,
      "count": 24,
      "max": [
        10.0,
        58.0,
        6.0
      ],
      "min": [
        3.0,
        36.0,
        -6.0
      ],
      "type": "VEC3"
    },
    {
      "bufferView": 1,
      "byteOffset": 1728,
      "componentType": 5126,
      "count": 24,
      "type": "VEC3"
    },
    {
      "bufferView": 2,
      "byteOffset": 432,
      "componentType": 5123,
      "count": 36,
      "type": "SCALAR"
    },
    {
      "bufferView": 0,
      "byteOffset": 2016,
      "componentType": 5126,
      "count": 24,
      "max": [
        12.0,
        72.0,
        7.0
      ],
      "min": [
        -12.0,
        58.0,
        -7.0
      ],
      "type": "VEC3"
    },
    {
      "bufferView": 1,
      "byteOffset": 2016,
      "componentType": 5126,
      "count": 24,
      "type": "VEC3"
    },
    {
      "bufferView": 2,
      "byteOffset": 504,
      "componentType": 5123,
      "count": 36,
      "type": "SCALAR"
    },
    {
      "bufferView": 0,
      "byteOffset": 2304,
      "componentType": 5126,
      "count": 24,
      "max": [
        24.0,
        122.0,
        -5.0
      ],
      "min": [
        19.0,
        20.0,
        -11.0
      ],
      "type": "VEC3"
    },
    {
      "bufferView": 1,
      "byteOffset": 2304,
      "componentType": 5126,
      "count": 24,
      "type": "VEC3"
    },
    {
      "bufferView": 2,
      "byteOffset": 576,
      "componentType": 5123,
      "count": 36,
      "type": "SCALAR"
    },
    {
      "bufferView": 0,
      "byteOffset": 2592,
      "componentType": 5126,
      "count": 24,
      "max": [
        -11.0,
        94.0,
        6.0
      ],
      "min": [
        -18.0,
        70.0,
        -6.0
      ],
      "type": "VEC3"
    },
    {
      "bufferView": 1,
      "byteOffset": 2592,
      "componentType": 5126,
      "count": 24,
      "type": "VEC3"
    },
    {
      "bufferView": 2,
      "byteOffset": 648,
      "componentType": 5123,
      "count": 36,
      "type": "SCALAR"
    },
    {
      "bufferView": 0,
      "byteOffset": 2880,
      "componentType": 5126,
      "count": 24,
      "max": [
        18.0,
        94.0,
        6.0
      ],
      "min": [
        11.0,
        70.0,
        -6.0
      ],
      "type": "VEC3"
    },
    {
      "bufferView": 1,
      "byteOffset": 2880,
      "componentType": 5126,
      "count": 24,
      "type": "VEC3"
    },
    {
      "bufferView": 2,
      "byteOffset": 720,
      "componentType": 5123,
      "count": 36,
      "type": "SCALAR"
    },
    {
      "bufferView": 0,
      "byteOffset": 3168,
      "componentType": 5126,
      "count": 24,
      "max": [
        11.0,
        98.0,
        7.0
      ],
      "min": [
        -11.0,
        72.0,
        -7.0
      ],
      "type": "VEC3"
    },
    {
      "bufferView": 1,
      "byteOffset": 3168,
      "componentType": 5126,
      "count": 24,
      "type": "VEC3"
    },
    {
      "bufferView": 2,
      "byteOffset": 792,
      "componentType": 5123,
      "count": 36,
      "type": "SCALAR"
    },
    {
      "bufferView": 0,
      "byteOffset": 3456,
      "componentType": 5126,
      "count": 24,
      "max": [
        -10.0,
        104.0,
        8.0
      ],
      "min": [
        -19.0,
        92.0,
        -8.0
      ],
      "type": "VEC3"
    },
    {
      "bufferView": 1,
      "byteOffset": 3456,
      "componentType": 5126,
      "count": 24,
      "type": "VEC3"
    },
    {
      "bufferView": 2,
      "byteOffset": 864,
      "componentType": 5123,
      "count": 36,
      "type": "SCALAR"
    },
    {
      "bufferView": 0,
      "byteOffset": 3744,
      "componentType": 5126,
      "count": 24,
      "max": [
        19.0,
        104.0,
        8.0
      ],
      "min": [
        10.0,
        92.0,
        -8.0
      ],
      "type": "VEC3"
    },
    {
      "bufferView": 1,
      "byteOffset": 3744,
      "componentType": 5126,
      "count": 24,
      "type": "VEC3"
    },
    {
      "bufferView": 2,
      "byteOffset": 936,
      "componentType": 5123,
      "count": 36,
      "type": "SCALAR"
    },
    {
      "bufferView": 0,
      "byteOffset": 4032,
      "componentType": 5126,
      "count": 24,
      "max": [
        5.0,
        104.0,
        5.0
      ],
      "min": [
        -5.0,
        98.0,
        -5.0
      ],
      "type": "VEC3"
    },
    {
      "bufferView": 1,
      "byteOffset": 4032,
      "componentType": 5126,
      "count": 24,
      "type": "VEC3"
    },
    {
      "bufferView": 2,
      "byteOffset": 1008,
      "componentType": 5123,
      "count": 36,
      "type": "SCALAR"
    },
    {
      "bufferView": 0,
      "byteOffset": 4320,
      "componentType": 5126,
      "count": 24,
      "max": [
        34.0,
        120.0,
        4.0
      ],
      "min": [
        23.0,
        98.0,
        -18.0
      ],
      "type": "VEC3"
    },
    {
      "bufferView": 1,
      "byteOffset": 4320,
      "componentType": 5126,
      "count": 24,
      "type": "VEC3"
    },
    {
      "bufferView": 2,
      "byteOffset": 1080,
      "componentType": 5123,
      "count": 36,
      "type": "SCALAR"
    },
    {
      "bufferView": 0,
      "byteOffset": 4608,
      "componentType": 5126,
      "count": 24,
      "max": [
        8.0,
        116.0,
        8.0
      ],
      "min": [
        -8.0,
        102.0,
        -8.0
      ],
      "type": "VEC3"
    },
    {
      "bufferView": 1,
      "byteOffset": 4608,
      "componentType": 5126,
      "count": 24,
      "type": "VEC3"
    },
    {
      "bufferView": 2,
      "byteOffset": 1152,
      "componentType": 5123,
      "count": 36,
      "type": "SCALAR"
    },
    {
      "bufferView": 0,
      "byteOffset": 4896,
      "componentType": 5126,
      "count": 24,
      "max": [
        -17.0,
        122.0,
        12.0
      ],
      "min": [
        -22.0,
        90.0,
        8.0
      ],
      "type": "VEC3"
    },
    {
      "bufferView": 1,
      "byteOffset": 4896,
      "componentType": 5126,
      "count": 24,
      "type": "VEC3"
    },
    {
      "bufferView": 2,
      "byteOffset": 1224,
      "componentType": 5123,
      "count": 36,
      "type": "SCALAR"
    },
    {
      "bufferView": 0,
      "byteOffset": 5184,
      "componentType": 5126,
      "count": 24,
      "max": [
        8.0,
        111.0,
        10.0
      ],
      "min": [
        -8.0,
        105.0,
        8.0
      ],
      "type": "VEC3"
    },
    {
      "bufferView": 1,
      "byteOffset": 5184,
      "componentType": 5126,
      "count": 24,
      "type": "VEC3"
    },
    {
      "bufferView": 2,
      "byteOffset": 1296,
      "componentType": 5123,
      "count": 36,
      "type": "SCALAR"
    },
    {
      "bufferView": 0,
      "byteOffset": 5472,
      "componentType": 5126,
      "count": 24,
      "max": [
        9.0,
        117.0,
        9.0
      ],
      "min": [
        -9.0,
        112.0,
        -9.0
      ],
      "type": "VEC3"
    },
    {
      "bufferView": 1,
      "byteOffset": 5472,
      "componentType": 5126,
      "count": 24,
      "type": "VEC3"
    },
    {
      "bufferView": 2,
      "byteOffset": 1368,
      "componentType": 5123,
      "count": 36,
      "type": "SCALAR"
    },
    {
      "bufferView": 0,
      "byteOffset": 5760,
      "componentType": 5126,
      "count": 24,
      "max": [
        3.0,
        124.0,
        2.0
      ],
      "min": [
        -3.0,
        114.0,
        -12.0
      ],
      "type": "VEC3"
    },
    {
      "bufferView": 1,
      "byteOffset": 5760,
      "componentType": 5126,
      "count": 24,
      "type": "VEC3"
    },
    {
      "bufferView": 2,
      "byteOffset": 1440,
      "componentType": 5123,
      "count": 36,
      "type": "SCALAR"
    },
    {
      "bufferView": 0,
      "byteOffset": 6048,
      "componentType": 5126,
      "count": 24,
      "max": [
        25.0,
        128.0,
        -4.0
      ],
      "min": [
        18.0,
        122.0,
        -12.0
      ],
      "type": "VEC3"
    },
    {
      "bufferView": 1,
      "byteOffset": 6048,
      "componentType": 5126,
      "count": 24,
      "type": "VEC3"
    },
    {
      "bufferView": 2,
      "byteOffset": 1512,
      "componentType": 5123,
      "count": 36,
      "type": "SCALAR"
    }
  ],
  "asset": {
    "generator": "Grandleon placeholder art generator",
    "version": "2.0"
  },
  "bufferViews": [
    {
      "buffer": 0,
      "byteLength": 6336,
      "byteOffset": 0,
      "byteStride": 12,
      "target": 34962
    },
    {
      "buffer": 0,
      "byteLength": 6336,
      "byteOffset": 6336,
      "byteStride": 12,
      "target": 34962
    },
    {
      "buffer": 0,
      "byteLength": 1584,
      "byteOffset": 12672,
      "target": 34963
    }
  ],
  "buffers": [
    {
      "byteLength": 14256,
      "uri": "commander.bin"
    }
  ],
  "materials": [
    {
      "doubleSided": false,
      "extras": {
        "ramp": 0,
        "rampName": "neutral",
        "rung": 0
      },
      "name": "neutral_ramp_rung_0",
      "pbrMetallicRoughness": {
        "baseColorFactor": [
          0.005182,
          0.005182,
          0.009134,
          1.0
        ],
        "metallicFactor": 0.0,
        "roughnessFactor": 1.0
      }
    },
    {
      "doubleSided": false,
      "extras": {
        "ramp": 0,
        "rampName": "neutral",
        "rung": 1
      },
      "name": "neutral_ramp_rung_1",
      "pbrMetallicRoughness": {
        "baseColorFactor": [
          0.124772,
          0.068478,
          0.022174,
          1.0
        ],
        "metallicFactor": 0.0,
        "roughnessFactor": 1.0
      }
    },
    {
      "doubleSided": false,
      "extras": {
        "ramp": 0,
        "rampName": "neutral",
        "rung": 2
      },
      "name": "neutral_ramp_rung_2",
      "pbrMetallicRoughness": {
        "baseColorFactor": [
          0.171441,
          0.198069,
          0.262251,
          1.0
        ],
        "metallicFactor": 0.0,
        "roughnessFactor": 1.0
      }
    },
    {
      "doubleSided": false,
      "extras": {
        "ramp": 0,
        "rampName": "neutral",
        "rung": 3
      },
      "name": "neutral_ramp_rung_3",
      "pbrMetallicRoughness": {
        "baseColorFactor": [
          0.730461,
          0.799103,
          0.799103,
          1.0
        ],
        "metallicFactor": 0.0,
        "roughnessFactor": 1.0
      }
    },
    {
      "doubleSided": false,
      "extras": {
        "ramp": 1,
        "rampName": "faction",
        "rung": 1
      },
      "name": "faction_ramp_rung_1",
      "pbrMetallicRoughness": {
        "baseColorFactor": [
          0.005182,
          0.084376,
          0.198069,
          1.0
        ],
        "metallicFactor": 0.0,
        "roughnessFactor": 1.0
      }
    },
    {
      "doubleSided": false,
      "extras": {
        "ramp": 1,
        "rampName": "faction",
        "rung": 2
      },
      "name": "faction_ramp_rung_2",
      "pbrMetallicRoughness": {
        "baseColorFactor": [
          0.015209,
          0.171441,
          0.417885,
          1.0
        ],
        "metallicFactor": 0.0,
        "roughnessFactor": 1.0
      }
    },
    {
      "doubleSided": false,
      "extras": {
        "ramp": 1,
        "rampName": "faction",
        "rung": 3
      },
      "name": "faction_ramp_rung_3",
      "pbrMetallicRoughness": {
        "baseColorFactor": [
          0.084376,
          0.376262,
          0.730461,
          1.0
        ],
        "metallicFactor": 0.0,
        "roughnessFactor": 1.0
      }
    }
  ],
  "meshes": [
    {
      "name": "00_left_boot",
      "primitives": [
        {
          "attributes": {
            "NORMAL": 1,
            "POSITION": 0
          },
          "indices": 2,
          "material": 0,
          "mode": 4
        }
      ]
    },
    {
      "name": "01_right_boot",
      "primitives": [
        {
          "attributes": {
            "NORMAL": 4,
            "POSITION": 3
          },
          "indices": 5,
          "material": 0,
          "mode": 4
        }
      ]
    },
    {
      "name": "02_left_shin",
      "primitives": [
        {
          "attributes": {
            "NORMAL": 7,
            "POSITION": 6
          },
          "indices": 8,
          "material": 1,
          "mode": 4
        }
      ]
    },
    {
      "name": "03_right_shin",
      "primitives": [
        {
          "attributes": {
            "NORMAL": 10,
            "POSITION": 9
          },
          "indices": 11,
          "material": 1,
          "mode": 4
        }
      ]
    },
    {
      "name": "04_cape",
      "primitives": [
        {
          "attributes": {
            "NORMAL": 13,
            "POSITION": 12
          },
          "indices": 14,
          "material": 4,
          "mode": 4
        }
      ]
    },
    {
      "name": "05_left_thigh",
      "primitives": [
        {
          "attributes": {
            "NORMAL": 16,
            "POSITION": 15
          },
          "indices": 17,
          "material": 2,
          "mode": 4
        }
      ]
    },
    {
      "name": "06_right_thigh",
      "primitives": [
        {
          "attributes": {
            "NORMAL": 19,
            "POSITION": 18
          },
          "indices": 20,
          "material": 2,
          "mode": 4
        }
      ]
    },
    {
      "name": "07_surcoat",
      "primitives": [
        {
          "attributes": {
            "NORMAL": 22,
            "POSITION": 21
          },
          "indices": 23,
          "material": 5,
          "mode": 4
        }
      ]
    },
    {
      "name": "08_banner_pole",
      "primitives": [
        {
          "attributes": {
            "NORMAL": 25,
            "POSITION": 24
          },
          "indices": 26,
          "material": 1,
          "mode": 4
        }
      ]
    },
    {
      "name": "09_left_arm",
      "primitives": [
        {
          "attributes": {
            "NORMAL": 28,
            "POSITION": 27
          },
          "indices": 29,
          "material": 2,
          "mode": 4
        }
      ]
    },
    {
      "name": "10_right_arm",
      "primitives": [
        {
          "attributes": {
            "NORMAL": 31,
            "POSITION": 30
          },
          "indices": 32,
          "material": 2,
          "mode": 4
        }
      ]
    },
    {
      "name": "11_cuirass",
      "primitives": [
        {
          "attributes": {
            "NORMAL": 34,
            "POSITION": 33
          },
          "indices": 35,
          "material": 6,
          "mode": 4
        }
      ]
    },
    {
      "name": "12_left_pauldron",
      "primitives": [
        {
          "attributes": {
            "NORMAL": 37,
            "POSITION": 36
          },
          "indices": 38,
          "material": 5,
          "mode": 4
        }
      ]
    },
    {
      "name": "13_right_pauldron",
      "primitives": [
        {
          "attributes": {
            "NORMAL": 40,
            "POSITION": 39
          },
          "indices": 41,
          "material": 5,
          "mode": 4
        }
      ]
    },
    {
      "name": "14_gorget",
      "primitives": [
        {
          "attributes": {
            "NORMAL": 43,
            "POSITION": 42
          },
          "indices": 44,
          "material": 0,
          "mode": 4
        }
      ]
    },
    {
      "name": "15_banner_cloth",
      "primitives": [
        {
          "attributes": {
            "NORMAL": 46,
            "POSITION": 45
          },
          "indices": 47,
          "material": 6,
          "mode": 4
        }
      ]
    },
    {
      "name": "16_great_helm",
      "primitives": [
        {
          "attributes": {
            "NORMAL": 49,
            "POSITION": 48
          },
          "indices": 50,
          "material": 2,
          "mode": 4
        }
      ]
    },
    {
      "name": "17_raised_sword",
      "primitives": [
        {
          "attributes": {
            "NORMAL": 52,
            "POSITION": 51
          },
          "indices": 53,
          "material": 3,
          "mode": 4
        }
      ]
    },
    {
      "name": "18_visor",
      "primitives": [
        {
          "attributes": {
            "NORMAL": 55,
            "POSITION": 54
          },
          "indices": 56,
          "material": 0,
          "mode": 4
        }
      ]
    },
    {
      "name": "19_circlet",
      "primitives": [
        {
          "attributes": {
            "NORMAL": 58,
            "POSITION": 57
          },
          "indices": 59,
          "material": 1,
          "mode": 4
        }
      ]
    },
    {
      "name": "20_plume",
      "primitives": [
        {
          "attributes": {
            "NORMAL": 61,
            "POSITION": 60
          },
          "indices": 62,
          "material": 6,
          "mode": 4
        }
      ]
    },
    {
      "name": "21_banner_finial",
      "primitives": [
        {
          "attributes": {
            "NORMAL": 64,
            "POSITION": 63
          },
          "indices": 65,
          "material": 3,
          "mode": 4
        }
      ]
    }
  ],
  "nodes": [
    {
      "children": [
        1,
        2,
        3,
        4,
        5,
        6,
        7,
        8,
        9,
        10,
        11,
        12,
        13,
        14,
        15,
        16,
        17,
        18,
        19,
        20,
        21,
        22
      ],
      "extras": {
        "archetype": "commander",
        "axes": "figure space is x right, y up, z away and is left-handed; glTF is y up, right-handed, -z forward, so z is negated and nothing else is",
        "bakedFaction": "blue",
        "partCount": 22,
        "partOrder": "authored far-to-near at the shipped pitch; node order and the index prefix on every node name both carry it",
        "pitchDegrees": 60,
        "rampFaction": 1,
        "rampNeutral": 0,
        "rungCount": 4,
        "silhouetteArea": 568,
        "silhouetteHeight": 32,
        "silhouetteWidth": 27,
        "style": "medieval",
        "triangleCount": 264,
        "unitWorld": 64,
        "worldHeight": 128
      },
      "name": "commander",
      "scale": [
        0.015625,
        0.015625,
        0.015625
      ]
    },
    {
      "extras": {
        "part": 0,
        "partName": "left boot",
        "ramp": 0,
        "rampName": "neutral",
        "rung": 0
      },
      "mesh": 0,
      "name": "00_left_boot"
    },
    {
      "extras": {
        "part": 1,
        "partName": "right boot",
        "ramp": 0,
        "rampName": "neutral",
        "rung": 0
      },
      "mesh": 1,
      "name": "01_right_boot"
    },
    {
      "extras": {
        "part": 2,
        "partName": "left shin",
        "ramp": 0,
        "rampName": "neutral",
        "rung": 1
      },
      "mesh": 2,
      "name": "02_left_shin"
    },
    {
      "extras": {
        "part": 3,
        "partName": "right shin",
        "ramp": 0,
        "rampName": "neutral",
        "rung": 1
      },
      "mesh": 3,
      "name": "03_right_shin"
    },
    {
      "extras": {
        "part": 4,
        "partName": "cape",
        "ramp": 1,
        "rampName": "faction",
        "rung": 1
      },
      "mesh": 4,
      "name": "04_cape"
    },
    {
      "extras": {
        "part": 5,
        "partName": "left thigh",
        "ramp": 0,
        "rampName": "neutral",
        "rung": 2
      },
      "mesh": 5,
      "name": "05_left_thigh"
    },
    {
      "extras": {
        "part": 6,
        "partName": "right thigh",
        "ramp": 0,
        "rampName": "neutral",
        "rung": 2
      },
      "mesh": 6,
      "name": "06_right_thigh"
    },
    {
      "extras": {
        "part": 7,
        "partName": "surcoat",
        "ramp": 1,
        "rampName": "faction",
        "rung": 2
      },
      "mesh": 7,
      "name": "07_surcoat"
    },
    {
      "extras": {
        "part": 8,
        "partName": "banner pole",
        "ramp": 0,
        "rampName": "neutral",
        "rung": 1
      },
      "mesh": 8,
      "name": "08_banner_pole"
    },
    {
      "extras": {
        "part": 9,
        "partName": "left arm",
        "ramp": 0,
        "rampName": "neutral",
        "rung": 2
      },
      "mesh": 9,
      "name": "09_left_arm"
    },
    {
      "extras": {
        "part": 10,
        "partName": "right arm",
        "ramp": 0,
        "rampName": "neutral",
        "rung": 2
      },
      "mesh": 10,
      "name": "10_right_arm"
    },
    {
      "extras": {
        "part": 11,
        "partName": "cuirass",
        "ramp": 1,
        "rampName": "faction",
        "rung": 3
      },
      "mesh": 11,
      "name": "11_cuirass"
    },
    {
      "extras": {
        "part": 12,
        "partName": "left pauldron",
        "ramp": 1,
        "rampName": "faction",
        "rung": 2
      },
      "mesh": 12,
      "name": "12_left_pauldron"
    },
    {
      "extras": {
        "part": 13,
        "partName": "right pauldron",
        "ramp": 1,
        "rampName": "faction",
        "rung": 2
      },
      "mesh": 13,
      "name": "13_right_pauldron"
    },
    {
      "extras": {
        "part": 14,
        "partName": "gorget",
        "ramp": 0,
        "rampName": "neutral",
        "rung": 0
      },
      "mesh": 14,
      "name": "14_gorget"
    },
    {
      "extras": {
        "part": 15,
        "partName": "banner cloth",
        "ramp": 1,
        "rampName": "faction",
        "rung": 3
      },
      "mesh": 15,
      "name": "15_banner_cloth"
    },
    {
      "extras": {
        "part": 16,
        "partName": "great helm",
        "ramp": 0,
        "rampName": "neutral",
        "rung": 2
      },
      "mesh": 16,
      "name": "16_great_helm"
    },
    {
      "extras": {
        "part": 17,
        "partName": "raised sword",
        "ramp": 0,
        "rampName": "neutral",
        "rung": 3
      },
      "mesh": 17,
      "name": "17_raised_sword"
    },
    {
      "extras": {
        "part": 18,
        "partName": "visor",
        "ramp": 0,
        "rampName": "neutral",
        "rung": 0
      },
      "mesh": 18,
      "name": "18_visor"
    },
    {
      "extras": {
        "part": 19,
        "partName": "circlet",
        "ramp": 0,
        "rampName": "neutral",
        "rung": 1
      },
      "mesh": 19,
      "name": "19_circlet"
    },
    {
      "extras": {
        "part": 20,
        "partName": "plume",
        "ramp": 1,
        "rampName": "faction",
        "rung": 3
      },
      "mesh": 20,
      "name": "20_plume"
    },
    {
      "extras": {
        "part": 21,
        "partName": "banner finial",
        "ramp": 0,
        "rampName": "neutral",
        "rung": 3
      },
      "mesh": 21,
      "name": "21_banner_finial"
    }
  ],
  "scene": 0,
  "scenes": [
    {
      "name": "commander",
      "nodes": [
        0
      ]
    }
  ]
}
