{
  "accessors": [
    {
      "bufferView": 0,
      "byteOffset": 0,
      "componentType": 5126,
      "count": 24,
      "max": [
        -5.0,
        7.0,
        5.0
      ],
      "min": [
        -13.0,
        0.0,
        -5.0
      ],
      "type": "VEC3"
    },
    {
      "bufferView": 1,
      "byteOffset": 0,
      "componentType": 5126,
      "count": 24,
      "type": "VEC3"
    },
    {
      "bufferView": 2,
      "byteOffset": 0,
      "componentType": 5123,
      "count": 36,
      "type": "SCALAR"
    },
    {
      "bufferView": 0,
      "byteOffset": 288,
      "componentType": 5126,
      "count": 24,
      "max": [
        13.0,
        7.0,
        5.0
      ],
      "min": [
        5.0,
        0.0,
        -5.0
      ],
      "type": "VEC3"
    },
    {
      "bufferView": 1,
      "byteOffset": 288,
      "componentType": 5126,
      "count": 24,
      "type": "VEC3"
    },
    {
      "bufferView": 2,
      "byteOffset": 72,
      "componentType": 5123,
      "count": 36,
      "type": "SCALAR"
    },
    {
      "bufferView": 0,
      "byteOffset": 576,
      "componentType": 5126,
      "count": 24,
      "max": [
        -5.0,
        30.0,
        5.0
      ],
      "min": [
        -12.0,
        5.0,
        -5.0
      ],
      "type": "VEC3"
    },
    {
      "bufferView": 1,
      "byteOffset": 576,
      "componentType": 5126,
      "count": 24,
      "type": "VEC3"
    },
    {
      "bufferView": 2,
      "byteOffset": 144,
      "componentType": 5123,
      "count": 36,
      "type": "SCALAR"
    },
    {
      "bufferView": 0,
      "byteOffset": 864,
      "componentType": 5126,
      "count": 24,
      "max": [
        12.0,
        30.0,
        5.0
      ],
      "min": [
        5.0,
        5.0,
        -5.0
      ],
      "type": "VEC3"
    },
    {
      "bufferView": 1,
      "byteOffset": 864,
      "componentType": 5126,
      "count": 24,
      "type": "VEC3"
    },
    {
      "bufferView": 2,
      "byteOffset": 216,
      "componentType": 5123,
      "count": 36,
      "type": "SCALAR"
    },
    {
      "bufferView": 0,
      "byteOffset": 1152,
      "componentType": 5126,
      "count": 24,
      "max": [
        13.0,
        28.0,
        7.0
      ],
      "min": [
        -13.0,
        19.0,
        -7.0
      ],
      "type": "VEC3"
    },
    {
      "bufferView": 1,
      "byteOffset": 1152,
      "componentType": 5126,
      "count": 24,
      "type": "VEC3"
    },
    {
      "bufferView": 2,
      "byteOffset": 288,
      "componentType": 5123,
      "count": 36,
      "type": "SCALAR"
    },
    {
      "bufferView": 0,
      "byteOffset": 1440,
      "componentType": 5126,
      "count": 24,
      "max": [
        14.0,
        43.0,
        6.0
      ],
      "min": [
        -14.0,
        27.0,
        -6.0
      ],
      "type": "VEC3"
    },
    {
      "bufferView": 1,
      "byteOffset": 1440,
      "componentType": 5126,
      "count": 24,
      "type": "VEC3"
    },
    {
      "bufferView": 2,
      "byteOffset": 360,
      "componentType": 5123,
      "count": 36,
      "type": "SCALAR"
    },
    {
      "bufferView": 0,
      "byteOffset": 1728,
      "componentType": 5126,
      "count": 24,
      "max": [
        -12.0,
        56.0,
        4.0
      ],
      "min": [
        -18.0,
        42.0,
        -4.0
      ],
      "type": "VEC3"
    },
    {
      "bufferView": 1,
      "byteOffset": 1728,
      "componentType": 5126,
      "count": 24,
      "type": "VEC3"
    },
    {
      "bufferView": 2,
      "byteOffset": 432,
      "componentType": 5123,
      "count": 36,
      "type": "SCALAR"
    },
    {
      "bufferView": 0,
      "byteOffset": 2016,
      "componentType": 5126,
      "count": 24,
      "max": [
        18.0,
        59.0,
        4.0
      ],
      "min": [
        12.0,
        43.0,
        -4.0
      ],
      "type": "VEC3"
    },
    {
      "bufferView": 1,
      "byteOffset": 2016,
      "componentType": 5126,
      "count": 24,
      "type": "VEC3"
    },
    {
      "bufferView": 2,
      "byteOffset": 504,
      "componentType": 5123,
      "count": 36,
      "type": "SCALAR"
    },
    {
      "bufferView": 0,
      "byteOffset": 2304,
      "componentType": 5126,
      "count": 24,
      "max": [
        12.0,
        63.0,
        6.0
      ],
      "min": [
        -12.0,
        42.0,
        -6.0
      ],
      "type": "VEC3"
    },
    {
      "bufferView": 1,
      "byteOffset": 2304,
      "componentType": 5126,
      "count": 24,
      "type": "VEC3"
    },
    {
      "bufferView": 2,
      "byteOffset": 576,
      "componentType": 5123,
      "count": 36,
      "type": "SCALAR"
    },
    {
      "bufferView": 0,
      "byteOffset": 2592,
      "componentType": 5126,
      "count": 24,
      "max": [
        17.0,
        63.0,
        -4.0
      ],
      "min": [
        10.0,
        56.0,
        -7.0
      ],
      "type": "VEC3"
    },
    {
      "bufferView": 1,
      "byteOffset": 2592,
      "componentType": 5126,
      "count": 24,
      "type": "VEC3"
    },
    {
      "bufferView": 2,
      "byteOffset": 648,
      "componentType": 5123,
      "count": 36,
      "type": "SCALAR"
    },
    {
      "bufferView": 0,
      "byteOffset": 2880,
      "componentType": 5126,
      "count": 24,
      "max": [
        5.0,
        63.0,
        8.0
      ],
      "min": [
        -5.0,
        43.0,
        7.0
      ],
      "type": "VEC3"
    },
    {
      "bufferView": 1,
      "byteOffset": 2880,
      "componentType": 5126,
      "count": 24,
      "type": "VEC3"
    },
    {
      "bufferView": 2,
      "byteOffset": 720,
      "componentType": 5123,
      "count": 36,
      "type": "SCALAR"
    },
    {
      "bufferView": 0,
      "byteOffset": 3168,
      "componentType": 5126,
      "count": 24,
      "max": [
        28.0,
        59.0,
        8.0
      ],
      "min": [
        0.0,
        52.0,
        4.0
      ],
      "type": "VEC3"
    },
    {
      "bufferView": 1,
      "byteOffset": 3168,
      "componentType": 5126,
      "count": 24,
      "type": "VEC3"
    },
    {
      "bufferView": 2,
      "byteOffset": 792,
      "componentType": 5123,
      "count": 36,
      "type": "SCALAR"
    },
    {
      "bufferView": 0,
      "byteOffset": 3456,
      "componentType": 5126,
      "count": 24,
      "max": [
        2.0,
        58.0,
        8.0
      ],
      "min": [
        -30.0,
        54.0,
        5.0
      ],
      "type": "VEC3"
    },
    {
      "bufferView": 1,
      "byteOffset": 3456,
      "componentType": 5126,
      "count": 24,
      "type": "VEC3"
    },
    {
      "bufferView": 2,
      "byteOffset": 864,
      "componentType": 5123,
      "count": 36,
      "type": "SCALAR"
    },
    {
      "bufferView": 0,
      "byteOffset": 3744,
      "componentType": 5126,
      "count": 24,
      "max": [
        17.0,
        73.0,
        -3.0
      ],
      "min": [
        10.0,
        63.0,
        -8.0
      ],
      "type": "VEC3"
    },
    {
      "bufferView": 1,
      "byteOffset": 3744,
      "componentType": 5126,
      "count": 24,
      "type": "VEC3"
    },
    {
      "bufferView": 2,
      "byteOffset": 936,
      "componentType": 5123,
      "count": 36,
      "type": "SCALAR"
    },
    {
      "bufferView": 0,
      "byteOffset": 4032,
      "componentType": 5126,
      "count": 24,
      "max": [
        6.0,
        62.0,
        10.0
      ],
      "min": [
        -4.0,
        58.0,
        7.0
      ],
      "type": "VEC3"
    },
    {
      "bufferView": 1,
      "byteOffset": 4032,
      "componentType": 5126,
      "count": 24,
      "type": "VEC3"
    },
    {
      "bufferView": 2,
      "byteOffset": 1008,
      "componentType": 5123,
      "count": 36,
      "type": "SCALAR"
    },
    {
      "bufferView": 0,
      "byteOffset": 4320,
      "componentType": 5126,
      "count": 24,
      "max": [
        9.0,
        75.0,
        5.0
      ],
      "min": [
        -9.0,
        59.0,
        -5.0
      ],
      "type": "VEC3"
    },
    {
      "bufferView": 1,
      "byteOffset": 4320,
      "componentType": 5126,
      "count": 24,
      "type": "VEC3"
    },
    {
      "bufferView": 2,
      "byteOffset": 1080,
      "componentType": 5123,
      "count": 36,
      "type": "SCALAR"
    },
    {
      "bufferView": 0,
      "byteOffset": 4608,
      "componentType": 5126,
      "count": 24,
      "max": [
        8.0,
        69.0,
        7.0
      ],
      "min": [
        -8.0,
        66.0,
        5.0
      ],
      "type": "VEC3"
    },
    {
      "bufferView": 1,
      "byteOffset": 4608,
      "componentType": 5126,
      "count": 24,
      "type": "VEC3"
    },
    {
      "bufferView": 2,
      "byteOffset": 1152,
      "componentType": 5123,
      "count": 36,
      "type": "SCALAR"
    },
    {
      "bufferView": 0,
      "byteOffset": 4896,
      "componentType": 5126,
      "count": 24,
      "max": [
        11.0,
        86.0,
        5.0
      ],
      "min": [
        -11.0,
        73.0,
        -3.0
      ],
      "type": "VEC3"
    },
    {
      "bufferView": 1,
      "byteOffset": 4896,
      "componentType": 5126,
      "count": 24,
      "type": "VEC3"
    },
    {
      "bufferView": 2,
      "byteOffset": 1224,
      "componentType": 5123,
      "count": 36,
      "type": "SCALAR"
    }
  ],
  "asset": {
    "generator": "Grandleon placeholder art generator",
    "version": "2.0"
  },
  "bufferViews": [
    {
      "buffer": 0,
      "byteLength": 5184,
      "byteOffset": 0,
      "byteStride": 12,
      "target": 34962
    },
    {
      "buffer": 0,
      "byteLength": 5184,
      "byteOffset": 5184,
      "byteStride": 12,
      "target": 34962
    },
    {
      "buffer": 0,
      "byteLength": 1296,
      "byteOffset": 10368,
      "target": 34963
    }
  ],
  "buffers": [
    {
      "byteLength": 11664,
      "uri": "archer.bin"
    }
  ],
  "materials": [
    {
      "doubleSided": false,
      "extras": {
        "ramp": 0,
        "rampName": "neutral",
        "rung": 0
      },
      "name": "neutral_ramp_rung_0",
      "pbrMetallicRoughness": {
        "baseColorFactor": [
          0.005182,
          0.005182,
          0.009134,
          1.0
        ],
        "metallicFactor": 0.0,
        "roughnessFactor": 1.0
      }
    },
    {
      "doubleSided": false,
      "extras": {
        "ramp": 0,
        "rampName": "neutral",
        "rung": 1
      },
      "name": "neutral_ramp_rung_1",
      "pbrMetallicRoughness": {
        "baseColorFactor": [
          0.102242,
          0.05448,
          0.015209,
          1.0
        ],
        "metallicFactor": 0.0,
        "roughnessFactor": 1.0
      }
    },
    {
      "doubleSided": false,
      "extras": {
        "ramp": 0,
        "rampName": "neutral",
        "rung": 2
      },
      "name": "neutral_ramp_rung_2",
      "pbrMetallicRoughness": {
        "baseColorFactor": [
          0.617207,
          0.262251,
          0.124772,
          1.0
        ],
        "metallicFactor": 0.0,
        "roughnessFactor": 1.0
      }
    },
    {
      "doubleSided": false,
      "extras": {
        "ramp": 0,
        "rampName": "neutral",
        "rung": 3
      },
      "name": "neutral_ramp_rung_3",
      "pbrMetallicRoughness": {
        "baseColorFactor": [
          0.730461,
          0.799103,
          0.799103,
          1.0
        ],
        "metallicFactor": 0.0,
        "roughnessFactor": 1.0
      }
    },
    {
      "doubleSided": false,
      "extras": {
        "ramp": 1,
        "rampName": "faction",
        "rung": 2
      },
      "name": "faction_ramp_rung_2",
      "pbrMetallicRoughness": {
        "baseColorFactor": [
          0.015209,
          0.171441,
          0.417885,
          1.0
        ],
        "metallicFactor": 0.0,
        "roughnessFactor": 1.0
      }
    },
    {
      "doubleSided": false,
      "extras": {
        "ramp": 1,
        "rampName": "faction",
        "rung": 3
      },
      "name": "faction_ramp_rung_3",
      "pbrMetallicRoughness": {
        "baseColorFactor": [
          0.084376,
          0.376262,
          0.730461,
          1.0
        ],
        "metallicFactor": 0.0,
        "roughnessFactor": 1.0
      }
    }
  ],
  "meshes": [
    {
      "name": "00_left_boot",
      "primitives": [
        {
          "attributes": {
            "NORMAL": 1,
            "POSITION": 0
          },
          "indices": 2,
          "material": 1,
          "mode": 4
        }
      ]
    },
    {
      "name": "01_right_boot",
      "primitives": [
        {
          "attributes": {
            "NORMAL": 4,
            "POSITION": 3
          },
          "indices": 5,
          "material": 1,
          "mode": 4
        }
      ]
    },
    {
      "name": "02_left_leg",
      "primitives": [
        {
          "attributes": {
            "NORMAL": 7,
            "POSITION": 6
          },
          "indices": 8,
          "material": 1,
          "mode": 4
        }
      ]
    },
    {
      "name": "03_right_leg",
      "primitives": [
        {
          "attributes": {
            "NORMAL": 10,
            "POSITION": 9
          },
          "indices": 11,
          "material": 1,
          "mode": 4
        }
      ]
    },
    {
      "name": "04_sea_coat_skirt",
      "primitives": [
        {
          "attributes": {
            "NORMAL": 13,
            "POSITION": 12
          },
          "indices": 14,
          "material": 1,
          "mode": 4
        }
      ]
    },
    {
      "name": "05_shirt_where_the_coat_falls_open",
      "primitives": [
        {
          "attributes": {
            "NORMAL": 16,
            "POSITION": 15
          },
          "indices": 17,
          "material": 4,
          "mode": 4
        }
      ]
    },
    {
      "name": "06_left_arm_out_to_the_muzzle",
      "primitives": [
        {
          "attributes": {
            "NORMAL": 19,
            "POSITION": 18
          },
          "indices": 20,
          "material": 2,
          "mode": 4
        }
      ]
    },
    {
      "name": "07_right_arm_at_the_stock",
      "primitives": [
        {
          "attributes": {
            "NORMAL": 22,
            "POSITION": 21
          },
          "indices": 23,
          "material": 2,
          "mode": 4
        }
      ]
    },
    {
      "name": "08_sea_coat_body",
      "primitives": [
        {
          "attributes": {
            "NORMAL": 25,
            "POSITION": 24
          },
          "indices": 26,
          "material": 1,
          "mode": 4
        }
      ]
    },
    {
      "name": "09_queue_ribbon",
      "primitives": [
        {
          "attributes": {
            "NORMAL": 28,
            "POSITION": 27
          },
          "indices": 29,
          "material": 5,
          "mode": 4
        }
      ]
    },
    {
      "name": "10_bandolier",
      "primitives": [
        {
          "attributes": {
            "NORMAL": 31,
            "POSITION": 30
          },
          "indices": 32,
          "material": 1,
          "mode": 4
        }
      ]
    },
    {
      "name": "11_musket_stock_level",
      "primitives": [
        {
          "attributes": {
            "NORMAL": 34,
            "POSITION": 33
          },
          "indices": 35,
          "material": 1,
          "mode": 4
        }
      ]
    },
    {
      "name": "12_musket_barrel_level",
      "primitives": [
        {
          "attributes": {
            "NORMAL": 37,
            "POSITION": 36
          },
          "indices": 38,
          "material": 3,
          "mode": 4
        }
      ]
    },
    {
      "name": "13_tied_queue",
      "primitives": [
        {
          "attributes": {
            "NORMAL": 40,
            "POSITION": 39
          },
          "indices": 41,
          "material": 1,
          "mode": 4
        }
      ]
    },
    {
      "name": "14_musket_lock",
      "primitives": [
        {
          "attributes": {
            "NORMAL": 43,
            "POSITION": 42
          },
          "indices": 44,
          "material": 0,
          "mode": 4
        }
      ]
    },
    {
      "name": "15_head",
      "primitives": [
        {
          "attributes": {
            "NORMAL": 46,
            "POSITION": 45
          },
          "indices": 47,
          "material": 2,
          "mode": 4
        }
      ]
    },
    {
      "name": "16_brow_shadow",
      "primitives": [
        {
          "attributes": {
            "NORMAL": 49,
            "POSITION": 48
          },
          "indices": 50,
          "material": 0,
          "mode": 4
        }
      ]
    },
    {
      "name": "17_tarred_hair",
      "primitives": [
        {
          "attributes": {
            "NORMAL": 52,
            "POSITION": 51
          },
          "indices": 53,
          "material": 1,
          "mode": 4
        }
      ]
    }
  ],
  "nodes": [
    {
      "children": [
        1,
        2,
        3,
        4,
        5,
        6,
        7,
        8,
        9,
        10,
        11,
        12,
        13,
        14,
        15,
        16,
        17,
        18
      ],
      "extras": {
        "archetype": "archer",
        "axes": "figure space is x right, y up, z away and is left-handed; glTF is y up, right-handed, -z forward, so z is negated and nothing else is",
        "bakedFaction": "blue",
        "partCount": 18,
        "partOrder": "authored far-to-near at the shipped pitch; node order and the index prefix on every node name both carry it",
        "pitchDegrees": 60,
        "rampFaction": 1,
        "rampNeutral": 0,
        "rungCount": 4,
        "silhouetteArea": 420,
        "silhouetteHeight": 29,
        "silhouetteWidth": 28,
        "style": "pirates",
        "triangleCount": 216,
        "unitWorld": 64,
        "worldHeight": 128
      },
      "name": "archer",
      "scale": [
        0.015625,
        0.015625,
        0.015625
      ]
    },
    {
      "extras": {
        "part": 0,
        "partName": "left boot",
        "ramp": 0,
        "rampName": "neutral",
        "rung": 1
      },
      "mesh": 0,
      "name": "00_left_boot"
    },
    {
      "extras": {
        "part": 1,
        "partName": "right boot",
        "ramp": 0,
        "rampName": "neutral",
        "rung": 1
      },
      "mesh": 1,
      "name": "01_right_boot"
    },
    {
      "extras": {
        "part": 2,
        "partName": "left leg",
        "ramp": 0,
        "rampName": "neutral",
        "rung": 1
      },
      "mesh": 2,
      "name": "02_left_leg"
    },
    {
      "extras": {
        "part": 3,
        "partName": "right leg",
        "ramp": 0,
        "rampName": "neutral",
        "rung": 1
      },
      "mesh": 3,
      "name": "03_right_leg"
    },
    {
      "extras": {
        "part": 4,
        "partName": "sea coat, skirt",
        "ramp": 0,
        "rampName": "neutral",
        "rung": 1
      },
      "mesh": 4,
      "name": "04_sea_coat_skirt"
    },
    {
      "extras": {
        "part": 5,
        "partName": "shirt, where the coat falls open",
        "ramp": 1,
        "rampName": "faction",
        "rung": 2
      },
      "mesh": 5,
      "name": "05_shirt_where_the_coat_falls_open"
    },
    {
      "extras": {
        "part": 6,
        "partName": "left arm, out to the muzzle",
        "ramp": 0,
        "rampName": "neutral",
        "rung": 2
      },
      "mesh": 6,
      "name": "06_left_arm_out_to_the_muzzle"
    },
    {
      "extras": {
        "part": 7,
        "partName": "right arm, at the stock",
        "ramp": 0,
        "rampName": "neutral",
        "rung": 2
      },
      "mesh": 7,
      "name": "07_right_arm_at_the_stock"
    },
    {
      "extras": {
        "part": 8,
        "partName": "sea coat, body",
        "ramp": 0,
        "rampName": "neutral",
        "rung": 1
      },
      "mesh": 8,
      "name": "08_sea_coat_body"
    },
    {
      "extras": {
        "part": 9,
        "partName": "queue ribbon",
        "ramp": 1,
        "rampName": "faction",
        "rung": 3
      },
      "mesh": 9,
      "name": "09_queue_ribbon"
    },
    {
      "extras": {
        "part": 10,
        "partName": "bandolier",
        "ramp": 0,
        "rampName": "neutral",
        "rung": 1
      },
      "mesh": 10,
      "name": "10_bandolier"
    },
    {
      "extras": {
        "part": 11,
        "partName": "musket stock, level",
        "ramp": 0,
        "rampName": "neutral",
        "rung": 1
      },
      "mesh": 11,
      "name": "11_musket_stock_level"
    },
    {
      "extras": {
        "part": 12,
        "partName": "musket barrel, level",
        "ramp": 0,
        "rampName": "neutral",
        "rung": 3
      },
      "mesh": 12,
      "name": "12_musket_barrel_level"
    },
    {
      "extras": {
        "part": 13,
        "partName": "tied queue",
        "ramp": 0,
        "rampName": "neutral",
        "rung": 1
      },
      "mesh": 13,
      "name": "13_tied_queue"
    },
    {
      "extras": {
        "part": 14,
        "partName": "musket lock",
        "ramp": 0,
        "rampName": "neutral",
        "rung": 0
      },
      "mesh": 14,
      "name": "14_musket_lock"
    },
    {
      "extras": {
        "part": 15,
        "partName": "head",
        "ramp": 0,
        "rampName": "neutral",
        "rung": 2
      },
      "mesh": 15,
      "name": "15_head"
    },
    {
      "extras": {
        "part": 16,
        "partName": "brow shadow",
        "ramp": 0,
        "rampName": "neutral",
        "rung": 0
      },
      "mesh": 16,
      "name": "16_brow_shadow"
    },
    {
      "extras": {
        "part": 17,
        "partName": "tarred hair",
        "ramp": 0,
        "rampName": "neutral",
        "rung": 1
      },
      "mesh": 17,
      "name": "17_tarred_hair"
    }
  ],
  "scene": 0,
  "scenes": [
    {
      "name": "archer",
      "nodes": [
        0
      ]
    }
  ]
}
