{
  "accessors": [
    {
      "bufferView": 0,
      "byteOffset": 0,
      "componentType": 5126,
      "count": 24,
      "max": [
        -2.0,
        8.0,
        10.0
      ],
      "min": [
        -10.0,
        0.0,
        -2.0
      ],
      "type": "VEC3"
    },
    {
      "bufferView": 1,
      "byteOffset": 0,
      "componentType": 5126,
      "count": 24,
      "type": "VEC3"
    },
    {
      "bufferView": 2,
      "byteOffset": 0,
      "componentType": 5123,
      "count": 36,
      "type": "SCALAR"
    },
    {
      "bufferView": 0,
      "byteOffset": 288,
      "componentType": 5126,
      "count": 24,
      "max": [
        12.0,
        8.0,
        10.0
      ],
      "min": [
        4.0,
        0.0,
        -2.0
      ],
      "type": "VEC3"
    },
    {
      "bufferView": 1,
      "byteOffset": 288,
      "componentType": 5126,
      "count": 24,
      "type": "VEC3"
    },
    {
      "bufferView": 2,
      "byteOffset": 72,
      "componentType": 5123,
      "count": 36,
      "type": "SCALAR"
    },
    {
      "bufferView": 0,
      "byteOffset": 576,
      "componentType": 5126,
      "count": 24,
      "max": [
        -10.0,
        18.0,
        3.0
      ],
      "min": [
        -24.0,
        4.0,
        -7.0
      ],
      "type": "VEC3"
    },
    {
      "bufferView": 1,
      "byteOffset": 576,
      "componentType": 5126,
      "count": 24,
      "type": "VEC3"
    },
    {
      "bufferView": 2,
      "byteOffset": 144,
      "componentType": 5123,
      "count": 36,
      "type": "SCALAR"
    },
    {
      "bufferView": 0,
      "byteOffset": 864,
      "componentType": 5126,
      "count": 24,
      "max": [
        -3.0,
        28.0,
        6.0
      ],
      "min": [
        -8.0,
        6.0,
        -2.0
      ],
      "type": "VEC3"
    },
    {
      "bufferView": 1,
      "byteOffset": 864,
      "componentType": 5126,
      "count": 24,
      "type": "VEC3"
    },
    {
      "bufferView": 2,
      "byteOffset": 216,
      "componentType": 5123,
      "count": 36,
      "type": "SCALAR"
    },
    {
      "bufferView": 0,
      "byteOffset": 1152,
      "componentType": 5126,
      "count": 24,
      "max": [
        10.0,
        28.0,
        6.0
      ],
      "min": [
        5.0,
        6.0,
        -2.0
      ],
      "type": "VEC3"
    },
    {
      "bufferView": 1,
      "byteOffset": 1152,
      "componentType": 5126,
      "count": 24,
      "type": "VEC3"
    },
    {
      "bufferView": 2,
      "byteOffset": 288,
      "componentType": 5123,
      "count": 36,
      "type": "SCALAR"
    },
    {
      "bufferView": 0,
      "byteOffset": 1440,
      "componentType": 5126,
      "count": 24,
      "max": [
        -4.0,
        32.0,
        3.0
      ],
      "min": [
        -18.0,
        16.0,
        -7.0
      ],
      "type": "VEC3"
    },
    {
      "bufferView": 1,
      "byteOffset": 1440,
      "componentType": 5126,
      "count": 24,
      "type": "VEC3"
    },
    {
      "bufferView": 2,
      "byteOffset": 360,
      "componentType": 5123,
      "count": 36,
      "type": "SCALAR"
    },
    {
      "bufferView": 0,
      "byteOffset": 1728,
      "componentType": 5126,
      "count": 24,
      "max": [
        2.0,
        48.0,
        3.0
      ],
      "min": [
        -12.0,
        28.0,
        -7.0
      ],
      "type": "VEC3"
    },
    {
      "bufferView": 1,
      "byteOffset": 1728,
      "componentType": 5126,
      "count": 24,
      "type": "VEC3"
    },
    {
      "bufferView": 2,
      "byteOffset": 432,
      "componentType": 5123,
      "count": 36,
      "type": "SCALAR"
    },
    {
      "bufferView": 0,
      "byteOffset": 2016,
      "componentType": 5126,
      "count": 24,
      "max": [
        16.0,
        74.0,
        9.0
      ],
      "min": [
        -8.0,
        26.0,
        -11.0
      ],
      "type": "VEC3"
    },
    {
      "bufferView": 1,
      "byteOffset": 2016,
      "componentType": 5126,
      "count": 24,
      "type": "VEC3"
    },
    {
      "bufferView": 2,
      "byteOffset": 504,
      "componentType": 5123,
      "count": 36,
      "type": "SCALAR"
    },
    {
      "bufferView": 0,
      "byteOffset": 2304,
      "componentType": 5126,
      "count": 24,
      "max": [
        12.0,
        70.0,
        12.0
      ],
      "min": [
        -6.0,
        40.0,
        9.0
      ],
      "type": "VEC3"
    },
    {
      "bufferView": 1,
      "byteOffset": 2304,
      "componentType": 5126,
      "count": 24,
      "type": "VEC3"
    },
    {
      "bufferView": 2,
      "byteOffset": 576,
      "componentType": 5123,
      "count": 36,
      "type": "SCALAR"
    },
    {
      "bufferView": 0,
      "byteOffset": 2592,
      "componentType": 5126,
      "count": 24,
      "max": [
        8.0,
        62.0,
        14.0
      ],
      "min": [
        -4.0,
        56.0,
        12.0
      ],
      "type": "VEC3"
    },
    {
      "bufferView": 1,
      "byteOffset": 2592,
      "componentType": 5126,
      "count": 24,
      "type": "VEC3"
    },
    {
      "bufferView": 2,
      "byteOffset": 648,
      "componentType": 5123,
      "count": 36,
      "type": "SCALAR"
    },
    {
      "bufferView": 0,
      "byteOffset": 2880,
      "componentType": 5126,
      "count": 24,
      "max": [
        18.0,
        88.0,
        7.0
      ],
      "min": [
        6.0,
        68.0,
        -7.0
      ],
      "type": "VEC3"
    },
    {
      "bufferView": 1,
      "byteOffset": 2880,
      "componentType": 5126,
      "count": 24,
      "type": "VEC3"
    },
    {
      "bufferView": 2,
      "byteOffset": 720,
      "componentType": 5123,
      "count": 36,
      "type": "SCALAR"
    },
    {
      "bufferView": 0,
      "byteOffset": 3168,
      "componentType": 5126,
      "count": 24,
      "max": [
        24.0,
        102.0,
        6.0
      ],
      "min": [
        4.0,
        88.0,
        -10.0
      ],
      "type": "VEC3"
    },
    {
      "bufferView": 1,
      "byteOffset": 3168,
      "componentType": 5126,
      "count": 24,
      "type": "VEC3"
    },
    {
      "bufferView": 2,
      "byteOffset": 792,
      "componentType": 5123,
      "count": 36,
      "type": "SCALAR"
    },
    {
      "bufferView": 0,
      "byteOffset": 3456,
      "componentType": 5126,
      "count": 24,
      "max": [
        26.0,
        96.0,
        10.0
      ],
      "min": [
        16.0,
        88.0,
        4.0
      ],
      "type": "VEC3"
    },
    {
      "bufferView": 1,
      "byteOffset": 3456,
      "componentType": 5126,
      "count": 24,
      "type": "VEC3"
    },
    {
      "bufferView": 2,
      "byteOffset": 864,
      "componentType": 5123,
      "count": 36,
      "type": "SCALAR"
    },
    {
      "bufferView": 0,
      "byteOffset": 3744,
      "componentType": 5126,
      "count": 24,
      "max": [
        13.0,
        98.0,
        8.0
      ],
      "min": [
        9.0,
        94.0,
        6.0
      ],
      "type": "VEC3"
    },
    {
      "bufferView": 1,
      "byteOffset": 3744,
      "componentType": 5126,
      "count": 24,
      "type": "VEC3"
    },
    {
      "bufferView": 2,
      "byteOffset": 936,
      "componentType": 5123,
      "count": 36,
      "type": "SCALAR"
    },
    {
      "bufferView": 0,
      "byteOffset": 4032,
      "componentType": 5126,
      "count": 24,
      "max": [
        27.0,
        118.0,
        0.0
      ],
      "min": [
        22.0,
        100.0,
        -8.0
      ],
      "type": "VEC3"
    },
    {
      "bufferView": 1,
      "byteOffset": 4032,
      "componentType": 5126,
      "count": 24,
      "type": "VEC3"
    },
    {
      "bufferView": 2,
      "byteOffset": 1008,
      "componentType": 5123,
      "count": 36,
      "type": "SCALAR"
    },
    {
      "bufferView": 0,
      "byteOffset": 4320,
      "componentType": 5126,
      "count": 24,
      "max": [
        7.0,
        120.0,
        4.0
      ],
      "min": [
        2.0,
        100.0,
        -4.0
      ],
      "type": "VEC3"
    },
    {
      "bufferView": 1,
      "byteOffset": 4320,
      "componentType": 5126,
      "count": 24,
      "type": "VEC3"
    },
    {
      "bufferView": 2,
      "byteOffset": 1080,
      "componentType": 5123,
      "count": 36,
      "type": "SCALAR"
    },
    {
      "bufferView": 0,
      "byteOffset": 4608,
      "componentType": 5126,
      "count": 24,
      "max": [
        17.0,
        128.0,
        2.0
      ],
      "min": [
        12.0,
        102.0,
        -6.0
      ],
      "type": "VEC3"
    },
    {
      "bufferView": 1,
      "byteOffset": 4608,
      "componentType": 5126,
      "count": 24,
      "type": "VEC3"
    },
    {
      "bufferView": 2,
      "byteOffset": 1152,
      "componentType": 5123,
      "count": 36,
      "type": "SCALAR"
    }
  ],
  "asset": {
    "generator": "Grandleon placeholder art generator",
    "version": "2.0"
  },
  "bufferViews": [
    {
      "buffer": 0,
      "byteLength": 4896,
      "byteOffset": 0,
      "byteStride": 12,
      "target": 34962
    },
    {
      "buffer": 0,
      "byteLength": 4896,
      "byteOffset": 4896,
      "byteStride": 12,
      "target": 34962
    },
    {
      "buffer": 0,
      "byteLength": 1224,
      "byteOffset": 9792,
      "target": 34963
    }
  ],
  "buffers": [
    {
      "byteLength": 11016,
      "uri": "beast.bin"
    }
  ],
  "materials": [
    {
      "doubleSided": false,
      "extras": {
        "ramp": 0,
        "rampName": "neutral",
        "rung": 0
      },
      "name": "neutral_ramp_rung_0",
      "pbrMetallicRoughness": {
        "baseColorFactor": [
          0.005182,
          0.005182,
          0.009134,
          1.0
        ],
        "metallicFactor": 0.0,
        "roughnessFactor": 1.0
      }
    },
    {
      "doubleSided": false,
      "extras": {
        "ramp": 0,
        "rampName": "neutral",
        "rung": 2
      },
      "name": "neutral_ramp_rung_2",
      "pbrMetallicRoughness": {
        "baseColorFactor": [
          0.672443,
          0.508881,
          0.147027,
          1.0
        ],
        "metallicFactor": 0.0,
        "roughnessFactor": 1.0
      }
    },
    {
      "doubleSided": false,
      "extras": {
        "ramp": 0,
        "rampName": "neutral",
        "rung": 3
      },
      "name": "neutral_ramp_rung_3",
      "pbrMetallicRoughness": {
        "baseColorFactor": [
          0.863157,
          0.930111,
          1.0,
          1.0
        ],
        "metallicFactor": 0.0,
        "roughnessFactor": 1.0
      }
    },
    {
      "doubleSided": false,
      "extras": {
        "ramp": 1,
        "rampName": "faction",
        "rung": 1
      },
      "name": "faction_ramp_rung_1",
      "pbrMetallicRoughness": {
        "baseColorFactor": [
          0.005182,
          0.084376,
          0.198069,
          1.0
        ],
        "metallicFactor": 0.0,
        "roughnessFactor": 1.0
      }
    },
    {
      "doubleSided": false,
      "extras": {
        "ramp": 1,
        "rampName": "faction",
        "rung": 2
      },
      "name": "faction_ramp_rung_2",
      "pbrMetallicRoughness": {
        "baseColorFactor": [
          0.015209,
          0.171441,
          0.417885,
          1.0
        ],
        "metallicFactor": 0.0,
        "roughnessFactor": 1.0
      }
    },
    {
      "doubleSided": false,
      "extras": {
        "ramp": 1,
        "rampName": "faction",
        "rung": 3
      },
      "name": "faction_ramp_rung_3",
      "pbrMetallicRoughness": {
        "baseColorFactor": [
          0.084376,
          0.376262,
          0.730461,
          1.0
        ],
        "metallicFactor": 0.0,
        "roughnessFactor": 1.0
      }
    }
  ],
  "meshes": [
    {
      "name": "00_left_foot_toes_spread",
      "primitives": [
        {
          "attributes": {
            "NORMAL": 1,
            "POSITION": 0
          },
          "indices": 2,
          "material": 1,
          "mode": 4
        }
      ]
    },
    {
      "name": "01_right_foot_toes_spread",
      "primitives": [
        {
          "attributes": {
            "NORMAL": 4,
            "POSITION": 3
          },
          "indices": 5,
          "material": 1,
          "mode": 4
        }
      ]
    },
    {
      "name": "02_tail_tip",
      "primitives": [
        {
          "attributes": {
            "NORMAL": 7,
            "POSITION": 6
          },
          "indices": 8,
          "material": 3,
          "mode": 4
        }
      ]
    },
    {
      "name": "03_left_shank",
      "primitives": [
        {
          "attributes": {
            "NORMAL": 10,
            "POSITION": 9
          },
          "indices": 11,
          "material": 1,
          "mode": 4
        }
      ]
    },
    {
      "name": "04_right_shank",
      "primitives": [
        {
          "attributes": {
            "NORMAL": 13,
            "POSITION": 12
          },
          "indices": 14,
          "material": 1,
          "mode": 4
        }
      ]
    },
    {
      "name": "05_tail_middle",
      "primitives": [
        {
          "attributes": {
            "NORMAL": 16,
            "POSITION": 15
          },
          "indices": 17,
          "material": 4,
          "mode": 4
        }
      ]
    },
    {
      "name": "06_tail_root",
      "primitives": [
        {
          "attributes": {
            "NORMAL": 19,
            "POSITION": 18
          },
          "indices": 20,
          "material": 4,
          "mode": 4
        }
      ]
    },
    {
      "name": "07_body_leaning_out",
      "primitives": [
        {
          "attributes": {
            "NORMAL": 22,
            "POSITION": 21
          },
          "indices": 23,
          "material": 4,
          "mode": 4
        }
      ]
    },
    {
      "name": "08_folded_wing",
      "primitives": [
        {
          "attributes": {
            "NORMAL": 25,
            "POSITION": 24
          },
          "indices": 26,
          "material": 3,
          "mode": 4
        }
      ]
    },
    {
      "name": "09_wing_bar",
      "primitives": [
        {
          "attributes": {
            "NORMAL": 28,
            "POSITION": 27
          },
          "indices": 29,
          "material": 2,
          "mode": 4
        }
      ]
    },
    {
      "name": "10_neck",
      "primitives": [
        {
          "attributes": {
            "NORMAL": 31,
            "POSITION": 30
          },
          "indices": 32,
          "material": 5,
          "mode": 4
        }
      ]
    },
    {
      "name": "11_skull",
      "primitives": [
        {
          "attributes": {
            "NORMAL": 34,
            "POSITION": 33
          },
          "indices": 35,
          "material": 5,
          "mode": 4
        }
      ]
    },
    {
      "name": "12_beak",
      "primitives": [
        {
          "attributes": {
            "NORMAL": 37,
            "POSITION": 36
          },
          "indices": 38,
          "material": 1,
          "mode": 4
        }
      ]
    },
    {
      "name": "13_eye",
      "primitives": [
        {
          "attributes": {
            "NORMAL": 40,
            "POSITION": 39
          },
          "indices": 41,
          "material": 0,
          "mode": 4
        }
      ]
    },
    {
      "name": "14_crest_far",
      "primitives": [
        {
          "attributes": {
            "NORMAL": 43,
            "POSITION": 42
          },
          "indices": 44,
          "material": 2,
          "mode": 4
        }
      ]
    },
    {
      "name": "15_crest_near",
      "primitives": [
        {
          "attributes": {
            "NORMAL": 46,
            "POSITION": 45
          },
          "indices": 47,
          "material": 2,
          "mode": 4
        }
      ]
    },
    {
      "name": "16_crest_middle",
      "primitives": [
        {
          "attributes": {
            "NORMAL": 49,
            "POSITION": 48
          },
          "indices": 50,
          "material": 2,
          "mode": 4
        }
      ]
    }
  ],
  "nodes": [
    {
      "children": [
        1,
        2,
        3,
        4,
        5,
        6,
        7,
        8,
        9,
        10,
        11,
        12,
        13,
        14,
        15,
        16,
        17
      ],
      "extras": {
        "archetype": "beast",
        "axes": "figure space is x right, y up, z away and is left-handed; glTF is y up, right-handed, -z forward, so z is negated and nothing else is",
        "bakedFaction": "blue",
        "partCount": 17,
        "partOrder": "authored far-to-near at the shipped pitch; node order and the index prefix on every node name both carry it",
        "pitchDegrees": 60,
        "rampFaction": 1,
        "rampNeutral": 0,
        "rungCount": 4,
        "silhouetteArea": 353,
        "silhouetteHeight": 29,
        "silhouetteWidth": 24,
        "style": "pirates",
        "triangleCount": 204,
        "unitWorld": 64,
        "worldHeight": 128
      },
      "name": "beast",
      "scale": [
        0.015625,
        0.015625,
        0.015625
      ]
    },
    {
      "extras": {
        "part": 0,
        "partName": "left foot, toes spread",
        "ramp": 0,
        "rampName": "neutral",
        "rung": 2
      },
      "mesh": 0,
      "name": "00_left_foot_toes_spread"
    },
    {
      "extras": {
        "part": 1,
        "partName": "right foot, toes spread",
        "ramp": 0,
        "rampName": "neutral",
        "rung": 2
      },
      "mesh": 1,
      "name": "01_right_foot_toes_spread"
    },
    {
      "extras": {
        "part": 2,
        "partName": "tail, tip",
        "ramp": 1,
        "rampName": "faction",
        "rung": 1
      },
      "mesh": 2,
      "name": "02_tail_tip"
    },
    {
      "extras": {
        "part": 3,
        "partName": "left shank",
        "ramp": 0,
        "rampName": "neutral",
        "rung": 2
      },
      "mesh": 3,
      "name": "03_left_shank"
    },
    {
      "extras": {
        "part": 4,
        "partName": "right shank",
        "ramp": 0,
        "rampName": "neutral",
        "rung": 2
      },
      "mesh": 4,
      "name": "04_right_shank"
    },
    {
      "extras": {
        "part": 5,
        "partName": "tail, middle",
        "ramp": 1,
        "rampName": "faction",
        "rung": 2
      },
      "mesh": 5,
      "name": "05_tail_middle"
    },
    {
      "extras": {
        "part": 6,
        "partName": "tail, root",
        "ramp": 1,
        "rampName": "faction",
        "rung": 2
      },
      "mesh": 6,
      "name": "06_tail_root"
    },
    {
      "extras": {
        "part": 7,
        "partName": "body, leaning out",
        "ramp": 1,
        "rampName": "faction",
        "rung": 2
      },
      "mesh": 7,
      "name": "07_body_leaning_out"
    },
    {
      "extras": {
        "part": 8,
        "partName": "folded wing",
        "ramp": 1,
        "rampName": "faction",
        "rung": 1
      },
      "mesh": 8,
      "name": "08_folded_wing"
    },
    {
      "extras": {
        "part": 9,
        "partName": "wing bar",
        "ramp": 0,
        "rampName": "neutral",
        "rung": 3
      },
      "mesh": 9,
      "name": "09_wing_bar"
    },
    {
      "extras": {
        "part": 10,
        "partName": "neck",
        "ramp": 1,
        "rampName": "faction",
        "rung": 3
      },
      "mesh": 10,
      "name": "10_neck"
    },
    {
      "extras": {
        "part": 11,
        "partName": "skull",
        "ramp": 1,
        "rampName": "faction",
        "rung": 3
      },
      "mesh": 11,
      "name": "11_skull"
    },
    {
      "extras": {
        "part": 12,
        "partName": "beak",
        "ramp": 0,
        "rampName": "neutral",
        "rung": 2
      },
      "mesh": 12,
      "name": "12_beak"
    },
    {
      "extras": {
        "part": 13,
        "partName": "eye",
        "ramp": 0,
        "rampName": "neutral",
        "rung": 0
      },
      "mesh": 13,
      "name": "13_eye"
    },
    {
      "extras": {
        "part": 14,
        "partName": "crest, far",
        "ramp": 0,
        "rampName": "neutral",
        "rung": 3
      },
      "mesh": 14,
      "name": "14_crest_far"
    },
    {
      "extras": {
        "part": 15,
        "partName": "crest, near",
        "ramp": 0,
        "rampName": "neutral",
        "rung": 3
      },
      "mesh": 15,
      "name": "15_crest_near"
    },
    {
      "extras": {
        "part": 16,
        "partName": "crest, middle",
        "ramp": 0,
        "rampName": "neutral",
        "rung": 3
      },
      "mesh": 16,
      "name": "16_crest_middle"
    }
  ],
  "scene": 0,
  "scenes": [
    {
      "name": "beast",
      "nodes": [
        0
      ]
    }
  ]
}
