{
  "accessors": [
    {
      "bufferView": 0,
      "byteOffset": 0,
      "componentType": 5126,
      "count": 24,
      "max": [
        15.0,
        12.0,
        5.0
      ],
      "min": [
        -15.0,
        0.0,
        -5.0
      ],
      "type": "VEC3"
    },
    {
      "bufferView": 1,
      "byteOffset": 0,
      "componentType": 5126,
      "count": 24,
      "type": "VEC3"
    },
    {
      "bufferView": 2,
      "byteOffset": 0,
      "componentType": 5123,
      "count": 36,
      "type": "SCALAR"
    },
    {
      "bufferView": 0,
      "byteOffset": 288,
      "componentType": 5126,
      "count": 24,
      "max": [
        13.0,
        31.0,
        5.0
      ],
      "min": [
        -13.0,
        11.0,
        -5.0
      ],
      "type": "VEC3"
    },
    {
      "bufferView": 1,
      "byteOffset": 288,
      "componentType": 5126,
      "count": 24,
      "type": "VEC3"
    },
    {
      "bufferView": 2,
      "byteOffset": 72,
      "componentType": 5123,
      "count": 36,
      "type": "SCALAR"
    },
    {
      "bufferView": 0,
      "byteOffset": 576,
      "componentType": 5126,
      "count": 24,
      "max": [
        4.0,
        50.0,
        6.0
      ],
      "min": [
        -4.0,
        4.0,
        5.0
      ],
      "type": "VEC3"
    },
    {
      "bufferView": 1,
      "byteOffset": 576,
      "componentType": 5126,
      "count": 24,
      "type": "VEC3"
    },
    {
      "bufferView": 2,
      "byteOffset": 144,
      "componentType": 5123,
      "count": 36,
      "type": "SCALAR"
    },
    {
      "bufferView": 0,
      "byteOffset": 864,
      "componentType": 5126,
      "count": 24,
      "max": [
        -16.0,
        45.0,
        -1.0
      ],
      "min": [
        -30.0,
        27.0,
        -6.0
      ],
      "type": "VEC3"
    },
    {
      "bufferView": 1,
      "byteOffset": 864,
      "componentType": 5126,
      "count": 24,
      "type": "VEC3"
    },
    {
      "bufferView": 2,
      "byteOffset": 216,
      "componentType": 5123,
      "count": 36,
      "type": "SCALAR"
    },
    {
      "bufferView": 0,
      "byteOffset": 1152,
      "componentType": 5126,
      "count": 24,
      "max": [
        30.0,
        45.0,
        -1.0
      ],
      "min": [
        16.0,
        27.0,
        -6.0
      ],
      "type": "VEC3"
    },
    {
      "bufferView": 1,
      "byteOffset": 1152,
      "componentType": 5126,
      "count": 24,
      "type": "VEC3"
    },
    {
      "bufferView": 2,
      "byteOffset": 288,
      "componentType": 5123,
      "count": 36,
      "type": "SCALAR"
    },
    {
      "bufferView": 0,
      "byteOffset": 1440,
      "componentType": 5126,
      "count": 24,
      "max": [
        -11.0,
        45.0,
        4.0
      ],
      "min": [
        -15.0,
        30.0,
        -4.0
      ],
      "type": "VEC3"
    },
    {
      "bufferView": 1,
      "byteOffset": 1440,
      "componentType": 5126,
      "count": 24,
      "type": "VEC3"
    },
    {
      "bufferView": 2,
      "byteOffset": 360,
      "componentType": 5123,
      "count": 36,
      "type": "SCALAR"
    },
    {
      "bufferView": 0,
      "byteOffset": 1728,
      "componentType": 5126,
      "count": 24,
      "max": [
        15.0,
        45.0,
        4.0
      ],
      "min": [
        11.0,
        30.0,
        -4.0
      ],
      "type": "VEC3"
    },
    {
      "bufferView": 1,
      "byteOffset": 1728,
      "componentType": 5126,
      "count": 24,
      "type": "VEC3"
    },
    {
      "bufferView": 2,
      "byteOffset": 432,
      "componentType": 5123,
      "count": 36,
      "type": "SCALAR"
    },
    {
      "bufferView": 0,
      "byteOffset": 2016,
      "componentType": 5126,
      "count": 24,
      "max": [
        11.0,
        50.0,
        5.0
      ],
      "min": [
        -11.0,
        30.0,
        -5.0
      ],
      "type": "VEC3"
    },
    {
      "bufferView": 1,
      "byteOffset": 2016,
      "componentType": 5126,
      "count": 24,
      "type": "VEC3"
    },
    {
      "bufferView": 2,
      "byteOffset": 504,
      "componentType": 5123,
      "count": 36,
      "type": "SCALAR"
    },
    {
      "bufferView": 0,
      "byteOffset": 2304,
      "componentType": 5126,
      "count": 24,
      "max": [
        -16.0,
        51.0,
        2.0
      ],
      "min": [
        -30.0,
        43.0,
        -5.0
      ],
      "type": "VEC3"
    },
    {
      "bufferView": 1,
      "byteOffset": 2304,
      "componentType": 5126,
      "count": 24,
      "type": "VEC3"
    },
    {
      "bufferView": 2,
      "byteOffset": 576,
      "componentType": 5123,
      "count": 36,
      "type": "SCALAR"
    },
    {
      "bufferView": 0,
      "byteOffset": 2592,
      "componentType": 5126,
      "count": 24,
      "max": [
        30.0,
        51.0,
        2.0
      ],
      "min": [
        16.0,
        43.0,
        -5.0
      ],
      "type": "VEC3"
    },
    {
      "bufferView": 1,
      "byteOffset": 2592,
      "componentType": 5126,
      "count": 24,
      "type": "VEC3"
    },
    {
      "bufferView": 2,
      "byteOffset": 648,
      "componentType": 5123,
      "count": 36,
      "type": "SCALAR"
    },
    {
      "bufferView": 0,
      "byteOffset": 2880,
      "componentType": 5126,
      "count": 24,
      "max": [
        -20.0,
        55.0,
        4.0
      ],
      "min": [
        -30.0,
        49.0,
        -1.0
      ],
      "type": "VEC3"
    },
    {
      "bufferView": 1,
      "byteOffset": 2880,
      "componentType": 5126,
      "count": 24,
      "type": "VEC3"
    },
    {
      "bufferView": 2,
      "byteOffset": 720,
      "componentType": 5123,
      "count": 36,
      "type": "SCALAR"
    },
    {
      "bufferView": 0,
      "byteOffset": 3168,
      "componentType": 5126,
      "count": 24,
      "max": [
        30.0,
        55.0,
        4.0
      ],
      "min": [
        20.0,
        49.0,
        -1.0
      ],
      "type": "VEC3"
    },
    {
      "bufferView": 1,
      "byteOffset": 3168,
      "componentType": 5126,
      "count": 24,
      "type": "VEC3"
    },
    {
      "bufferView": 2,
      "byteOffset": 792,
      "componentType": 5123,
      "count": 36,
      "type": "SCALAR"
    },
    {
      "bufferView": 0,
      "byteOffset": 3456,
      "componentType": 5126,
      "count": 24,
      "max": [
        -20.0,
        59.0,
        5.0
      ],
      "min": [
        -32.0,
        53.0,
        -1.0
      ],
      "type": "VEC3"
    },
    {
      "bufferView": 1,
      "byteOffset": 3456,
      "componentType": 5126,
      "count": 24,
      "type": "VEC3"
    },
    {
      "bufferView": 2,
      "byteOffset": 864,
      "componentType": 5123,
      "count": 36,
      "type": "SCALAR"
    },
    {
      "bufferView": 0,
      "byteOffset": 3744,
      "componentType": 5126,
      "count": 24,
      "max": [
        32.0,
        59.0,
        5.0
      ],
      "min": [
        20.0,
        53.0,
        -1.0
      ],
      "type": "VEC3"
    },
    {
      "bufferView": 1,
      "byteOffset": 3744,
      "componentType": 5126,
      "count": 24,
      "type": "VEC3"
    },
    {
      "bufferView": 2,
      "byteOffset": 936,
      "componentType": 5123,
      "count": 36,
      "type": "SCALAR"
    },
    {
      "bufferView": 0,
      "byteOffset": 4032,
      "componentType": 5126,
      "count": 24,
      "max": [
        -25.0,
        57.0,
        6.0
      ],
      "min": [
        -30.0,
        55.0,
        5.0
      ],
      "type": "VEC3"
    },
    {
      "bufferView": 1,
      "byteOffset": 4032,
      "componentType": 5126,
      "count": 24,
      "type": "VEC3"
    },
    {
      "bufferView": 2,
      "byteOffset": 1008,
      "componentType": 5123,
      "count": 36,
      "type": "SCALAR"
    },
    {
      "bufferView": 0,
      "byteOffset": 4320,
      "componentType": 5126,
      "count": 24,
      "max": [
        30.0,
        57.0,
        6.0
      ],
      "min": [
        25.0,
        55.0,
        5.0
      ],
      "type": "VEC3"
    },
    {
      "bufferView": 1,
      "byteOffset": 4320,
      "componentType": 5126,
      "count": 24,
      "type": "VEC3"
    },
    {
      "bufferView": 2,
      "byteOffset": 1080,
      "componentType": 5123,
      "count": 36,
      "type": "SCALAR"
    },
    {
      "bufferView": 0,
      "byteOffset": 4608,
      "componentType": 5126,
      "count": 24,
      "max": [
        -23.0,
        63.0,
        -1.0
      ],
      "min": [
        -31.0,
        59.0,
        -5.0
      ],
      "type": "VEC3"
    },
    {
      "bufferView": 1,
      "byteOffset": 4608,
      "componentType": 5126,
      "count": 24,
      "type": "VEC3"
    },
    {
      "bufferView": 2,
      "byteOffset": 1152,
      "componentType": 5123,
      "count": 36,
      "type": "SCALAR"
    },
    {
      "bufferView": 0,
      "byteOffset": 4896,
      "componentType": 5126,
      "count": 24,
      "max": [
        31.0,
        63.0,
        -1.0
      ],
      "min": [
        23.0,
        59.0,
        -5.0
      ],
      "type": "VEC3"
    },
    {
      "bufferView": 1,
      "byteOffset": 4896,
      "componentType": 5126,
      "count": 24,
      "type": "VEC3"
    },
    {
      "bufferView": 2,
      "byteOffset": 1224,
      "componentType": 5123,
      "count": 36,
      "type": "SCALAR"
    },
    {
      "bufferView": 0,
      "byteOffset": 5184,
      "componentType": 5126,
      "count": 24,
      "max": [
        8.0,
        67.0,
        4.0
      ],
      "min": [
        -8.0,
        55.0,
        -4.0
      ],
      "type": "VEC3"
    },
    {
      "bufferView": 1,
      "byteOffset": 5184,
      "componentType": 5126,
      "count": 24,
      "type": "VEC3"
    },
    {
      "bufferView": 2,
      "byteOffset": 1296,
      "componentType": 5123,
      "count": 36,
      "type": "SCALAR"
    },
    {
      "bufferView": 0,
      "byteOffset": 5472,
      "componentType": 5126,
      "count": 24,
      "max": [
        10.0,
        72.0,
        2.0
      ],
      "min": [
        -10.0,
        61.0,
        -6.0
      ],
      "type": "VEC3"
    },
    {
      "bufferView": 1,
      "byteOffset": 5472,
      "componentType": 5126,
      "count": 24,
      "type": "VEC3"
    },
    {
      "bufferView": 2,
      "byteOffset": 1368,
      "componentType": 5123,
      "count": 36,
      "type": "SCALAR"
    },
    {
      "bufferView": 0,
      "byteOffset": 5760,
      "componentType": 5126,
      "count": 24,
      "max": [
        9.0,
        76.0,
        4.0
      ],
      "min": [
        -9.0,
        71.0,
        -4.0
      ],
      "type": "VEC3"
    },
    {
      "bufferView": 1,
      "byteOffset": 5760,
      "componentType": 5126,
      "count": 24,
      "type": "VEC3"
    },
    {
      "bufferView": 2,
      "byteOffset": 1440,
      "componentType": 5123,
      "count": 36,
      "type": "SCALAR"
    }
  ],
  "asset": {
    "generator": "Grandleon placeholder art generator",
    "version": "2.0"
  },
  "bufferViews": [
    {
      "buffer": 0,
      "byteLength": 6048,
      "byteOffset": 0,
      "byteStride": 12,
      "target": 34962
    },
    {
      "buffer": 0,
      "byteLength": 6048,
      "byteOffset": 6048,
      "byteStride": 12,
      "target": 34962
    },
    {
      "buffer": 0,
      "byteLength": 1512,
      "byteOffset": 12096,
      "target": 34963
    }
  ],
  "buffers": [
    {
      "byteLength": 13608,
      "uri": "stormcaller.bin"
    }
  ],
  "materials": [
    {
      "doubleSided": false,
      "extras": {
        "ramp": 0,
        "rampName": "neutral",
        "rung": 1
      },
      "name": "neutral_ramp_rung_1",
      "pbrMetallicRoughness": {
        "baseColorFactor": [
          0.147027,
          0.084376,
          0.124772,
          1.0
        ],
        "metallicFactor": 0.0,
        "roughnessFactor": 1.0
      }
    },
    {
      "doubleSided": false,
      "extras": {
        "ramp": 0,
        "rampName": "neutral",
        "rung": 2
      },
      "name": "neutral_ramp_rung_2",
      "pbrMetallicRoughness": {
        "baseColorFactor": [
          0.617207,
          0.262251,
          0.124772,
          1.0
        ],
        "metallicFactor": 0.0,
        "roughnessFactor": 1.0
      }
    },
    {
      "doubleSided": false,
      "extras": {
        "ramp": 0,
        "rampName": "neutral",
        "rung": 3
      },
      "name": "neutral_ramp_rung_3",
      "pbrMetallicRoughness": {
        "baseColorFactor": [
          0.863157,
          0.672443,
          0.262251,
          1.0
        ],
        "metallicFactor": 0.0,
        "roughnessFactor": 1.0
      }
    },
    {
      "doubleSided": false,
      "extras": {
        "ramp": 1,
        "rampName": "faction",
        "rung": 0
      },
      "name": "faction_ramp_rung_0",
      "pbrMetallicRoughness": {
        "baseColorFactor": [
          0.002428,
          0.030713,
          0.084376,
          1.0
        ],
        "metallicFactor": 0.0,
        "roughnessFactor": 1.0
      }
    },
    {
      "doubleSided": false,
      "extras": {
        "ramp": 1,
        "rampName": "faction",
        "rung": 1
      },
      "name": "faction_ramp_rung_1",
      "pbrMetallicRoughness": {
        "baseColorFactor": [
          0.005182,
          0.084376,
          0.198069,
          1.0
        ],
        "metallicFactor": 0.0,
        "roughnessFactor": 1.0
      }
    },
    {
      "doubleSided": false,
      "extras": {
        "ramp": 1,
        "rampName": "faction",
        "rung": 2
      },
      "name": "faction_ramp_rung_2",
      "pbrMetallicRoughness": {
        "baseColorFactor": [
          0.015209,
          0.171441,
          0.417885,
          1.0
        ],
        "metallicFactor": 0.0,
        "roughnessFactor": 1.0
      }
    },
    {
      "doubleSided": false,
      "extras": {
        "ramp": 1,
        "rampName": "faction",
        "rung": 3
      },
      "name": "faction_ramp_rung_3",
      "pbrMetallicRoughness": {
        "baseColorFactor": [
          0.084376,
          0.376262,
          0.730461,
          1.0
        ],
        "metallicFactor": 0.0,
        "roughnessFactor": 1.0
      }
    }
  ],
  "meshes": [
    {
      "name": "00_robe_hem",
      "primitives": [
        {
          "attributes": {
            "NORMAL": 1,
            "POSITION": 0
          },
          "indices": 2,
          "material": 4,
          "mode": 4
        }
      ]
    },
    {
      "name": "01_robe",
      "primitives": [
        {
          "attributes": {
            "NORMAL": 4,
            "POSITION": 3
          },
          "indices": 5,
          "material": 5,
          "mode": 4
        }
      ]
    },
    {
      "name": "02_scale_placket",
      "primitives": [
        {
          "attributes": {
            "NORMAL": 7,
            "POSITION": 6
          },
          "indices": 8,
          "material": 0,
          "mode": 4
        }
      ]
    },
    {
      "name": "03_left_membrane_folded",
      "primitives": [
        {
          "attributes": {
            "NORMAL": 10,
            "POSITION": 9
          },
          "indices": 11,
          "material": 3,
          "mode": 4
        }
      ]
    },
    {
      "name": "04_right_membrane_folded",
      "primitives": [
        {
          "attributes": {
            "NORMAL": 13,
            "POSITION": 12
          },
          "indices": 14,
          "material": 3,
          "mode": 4
        }
      ]
    },
    {
      "name": "05_left_arm_hanging",
      "primitives": [
        {
          "attributes": {
            "NORMAL": 16,
            "POSITION": 15
          },
          "indices": 17,
          "material": 5,
          "mode": 4
        }
      ]
    },
    {
      "name": "06_right_arm_hanging",
      "primitives": [
        {
          "attributes": {
            "NORMAL": 19,
            "POSITION": 18
          },
          "indices": 20,
          "material": 5,
          "mode": 4
        }
      ]
    },
    {
      "name": "07_torso",
      "primitives": [
        {
          "attributes": {
            "NORMAL": 22,
            "POSITION": 21
          },
          "indices": 23,
          "material": 6,
          "mode": 4
        }
      ]
    },
    {
      "name": "08_left_wyrmling_body",
      "primitives": [
        {
          "attributes": {
            "NORMAL": 25,
            "POSITION": 24
          },
          "indices": 26,
          "material": 0,
          "mode": 4
        }
      ]
    },
    {
      "name": "09_right_wyrmling_body",
      "primitives": [
        {
          "attributes": {
            "NORMAL": 28,
            "POSITION": 27
          },
          "indices": 29,
          "material": 0,
          "mode": 4
        }
      ]
    },
    {
      "name": "10_left_wyrmling_neck",
      "primitives": [
        {
          "attributes": {
            "NORMAL": 31,
            "POSITION": 30
          },
          "indices": 32,
          "material": 0,
          "mode": 4
        }
      ]
    },
    {
      "name": "11_right_wyrmling_neck",
      "primitives": [
        {
          "attributes": {
            "NORMAL": 34,
            "POSITION": 33
          },
          "indices": 35,
          "material": 0,
          "mode": 4
        }
      ]
    },
    {
      "name": "12_left_wyrmling_head",
      "primitives": [
        {
          "attributes": {
            "NORMAL": 37,
            "POSITION": 36
          },
          "indices": 38,
          "material": 0,
          "mode": 4
        }
      ]
    },
    {
      "name": "13_right_wyrmling_head",
      "primitives": [
        {
          "attributes": {
            "NORMAL": 40,
            "POSITION": 39
          },
          "indices": 41,
          "material": 0,
          "mode": 4
        }
      ]
    },
    {
      "name": "14_left_wyrmling_eye",
      "primitives": [
        {
          "attributes": {
            "NORMAL": 43,
            "POSITION": 42
          },
          "indices": 44,
          "material": 2,
          "mode": 4
        }
      ]
    },
    {
      "name": "15_right_wyrmling_eye",
      "primitives": [
        {
          "attributes": {
            "NORMAL": 46,
            "POSITION": 45
          },
          "indices": 47,
          "material": 2,
          "mode": 4
        }
      ]
    },
    {
      "name": "16_left_wyrmling_crest",
      "primitives": [
        {
          "attributes": {
            "NORMAL": 49,
            "POSITION": 48
          },
          "indices": 50,
          "material": 2,
          "mode": 4
        }
      ]
    },
    {
      "name": "17_right_wyrmling_crest",
      "primitives": [
        {
          "attributes": {
            "NORMAL": 52,
            "POSITION": 51
          },
          "indices": 53,
          "material": 2,
          "mode": 4
        }
      ]
    },
    {
      "name": "18_head",
      "primitives": [
        {
          "attributes": {
            "NORMAL": 55,
            "POSITION": 54
          },
          "indices": 56,
          "material": 1,
          "mode": 4
        }
      ]
    },
    {
      "name": "19_scale_hood",
      "primitives": [
        {
          "attributes": {
            "NORMAL": 58,
            "POSITION": 57
          },
          "indices": 59,
          "material": 0,
          "mode": 4
        }
      ]
    },
    {
      "name": "20_singer_s_circlet",
      "primitives": [
        {
          "attributes": {
            "NORMAL": 61,
            "POSITION": 60
          },
          "indices": 62,
          "material": 2,
          "mode": 4
        }
      ]
    }
  ],
  "nodes": [
    {
      "children": [
        1,
        2,
        3,
        4,
        5,
        6,
        7,
        8,
        9,
        10,
        11,
        12,
        13,
        14,
        15,
        16,
        17,
        18,
        19,
        20,
        21
      ],
      "extras": {
        "archetype": "stormcaller",
        "axes": "figure space is x right, y up, z away and is left-handed; glTF is y up, right-handed, -z forward, so z is negated and nothing else is",
        "bakedFaction": "blue",
        "partCount": 21,
        "partOrder": "authored far-to-near at the shipped pitch; node order and the index prefix on every node name both carry it",
        "pitchDegrees": 60,
        "rampFaction": 1,
        "rampNeutral": 0,
        "rungCount": 4,
        "silhouetteArea": 496,
        "silhouetteHeight": 27,
        "silhouetteWidth": 32,
        "style": "mythical",
        "triangleCount": 252,
        "unitWorld": 64,
        "worldHeight": 128
      },
      "name": "stormcaller",
      "scale": [
        0.015625,
        0.015625,
        0.015625
      ]
    },
    {
      "extras": {
        "part": 0,
        "partName": "robe hem",
        "ramp": 1,
        "rampName": "faction",
        "rung": 1
      },
      "mesh": 0,
      "name": "00_robe_hem"
    },
    {
      "extras": {
        "part": 1,
        "partName": "robe",
        "ramp": 1,
        "rampName": "faction",
        "rung": 2
      },
      "mesh": 1,
      "name": "01_robe"
    },
    {
      "extras": {
        "part": 2,
        "partName": "scale placket",
        "ramp": 0,
        "rampName": "neutral",
        "rung": 1
      },
      "mesh": 2,
      "name": "02_scale_placket"
    },
    {
      "extras": {
        "part": 3,
        "partName": "left membrane, folded",
        "ramp": 1,
        "rampName": "faction",
        "rung": 0
      },
      "mesh": 3,
      "name": "03_left_membrane_folded"
    },
    {
      "extras": {
        "part": 4,
        "partName": "right membrane, folded",
        "ramp": 1,
        "rampName": "faction",
        "rung": 0
      },
      "mesh": 4,
      "name": "04_right_membrane_folded"
    },
    {
      "extras": {
        "part": 5,
        "partName": "left arm, hanging",
        "ramp": 1,
        "rampName": "faction",
        "rung": 2
      },
      "mesh": 5,
      "name": "05_left_arm_hanging"
    },
    {
      "extras": {
        "part": 6,
        "partName": "right arm, hanging",
        "ramp": 1,
        "rampName": "faction",
        "rung": 2
      },
      "mesh": 6,
      "name": "06_right_arm_hanging"
    },
    {
      "extras": {
        "part": 7,
        "partName": "torso",
        "ramp": 1,
        "rampName": "faction",
        "rung": 3
      },
      "mesh": 7,
      "name": "07_torso"
    },
    {
      "extras": {
        "part": 8,
        "partName": "left wyrmling, body",
        "ramp": 0,
        "rampName": "neutral",
        "rung": 1
      },
      "mesh": 8,
      "name": "08_left_wyrmling_body"
    },
    {
      "extras": {
        "part": 9,
        "partName": "right wyrmling, body",
        "ramp": 0,
        "rampName": "neutral",
        "rung": 1
      },
      "mesh": 9,
      "name": "09_right_wyrmling_body"
    },
    {
      "extras": {
        "part": 10,
        "partName": "left wyrmling, neck",
        "ramp": 0,
        "rampName": "neutral",
        "rung": 1
      },
      "mesh": 10,
      "name": "10_left_wyrmling_neck"
    },
    {
      "extras": {
        "part": 11,
        "partName": "right wyrmling, neck",
        "ramp": 0,
        "rampName": "neutral",
        "rung": 1
      },
      "mesh": 11,
      "name": "11_right_wyrmling_neck"
    },
    {
      "extras": {
        "part": 12,
        "partName": "left wyrmling, head",
        "ramp": 0,
        "rampName": "neutral",
        "rung": 1
      },
      "mesh": 12,
      "name": "12_left_wyrmling_head"
    },
    {
      "extras": {
        "part": 13,
        "partName": "right wyrmling, head",
        "ramp": 0,
        "rampName": "neutral",
        "rung": 1
      },
      "mesh": 13,
      "name": "13_right_wyrmling_head"
    },
    {
      "extras": {
        "part": 14,
        "partName": "left wyrmling, eye",
        "ramp": 0,
        "rampName": "neutral",
        "rung": 3
      },
      "mesh": 14,
      "name": "14_left_wyrmling_eye"
    },
    {
      "extras": {
        "part": 15,
        "partName": "right wyrmling, eye",
        "ramp": 0,
        "rampName": "neutral",
        "rung": 3
      },
      "mesh": 15,
      "name": "15_right_wyrmling_eye"
    },
    {
      "extras": {
        "part": 16,
        "partName": "left wyrmling, crest",
        "ramp": 0,
        "rampName": "neutral",
        "rung": 3
      },
      "mesh": 16,
      "name": "16_left_wyrmling_crest"
    },
    {
      "extras": {
        "part": 17,
        "partName": "right wyrmling, crest",
        "ramp": 0,
        "rampName": "neutral",
        "rung": 3
      },
      "mesh": 17,
      "name": "17_right_wyrmling_crest"
    },
    {
      "extras": {
        "part": 18,
        "partName": "head",
        "ramp": 0,
        "rampName": "neutral",
        "rung": 2
      },
      "mesh": 18,
      "name": "18_head"
    },
    {
      "extras": {
        "part": 19,
        "partName": "scale hood",
        "ramp": 0,
        "rampName": "neutral",
        "rung": 1
      },
      "mesh": 19,
      "name": "19_scale_hood"
    },
    {
      "extras": {
        "part": 20,
        "partName": "singer's circlet",
        "ramp": 0,
        "rampName": "neutral",
        "rung": 3
      },
      "mesh": 20,
      "name": "20_singer_s_circlet"
    }
  ],
  "scene": 0,
  "scenes": [
    {
      "name": "stormcaller",
      "nodes": [
        0
      ]
    }
  ]
}
