{
  "accessors": [
    {
      "bufferView": 0,
      "byteOffset": 0,
      "componentType": 5126,
      "count": 24,
      "max": [
        14.0,
        58.0,
        8.0
      ],
      "min": [
        -14.0,
        0.0,
        -8.0
      ],
      "type": "VEC3"
    },
    {
      "bufferView": 1,
      "byteOffset": 0,
      "componentType": 5126,
      "count": 24,
      "type": "VEC3"
    },
    {
      "bufferView": 2,
      "byteOffset": 0,
      "componentType": 5123,
      "count": 36,
      "type": "SCALAR"
    },
    {
      "bufferView": 0,
      "byteOffset": 288,
      "componentType": 5126,
      "count": 24,
      "max": [
        4.0,
        58.0,
        11.0
      ],
      "min": [
        -4.0,
        4.0,
        8.0
      ],
      "type": "VEC3"
    },
    {
      "bufferView": 1,
      "byteOffset": 288,
      "componentType": 5126,
      "count": 24,
      "type": "VEC3"
    },
    {
      "bufferView": 2,
      "byteOffset": 72,
      "componentType": 5123,
      "count": 36,
      "type": "SCALAR"
    },
    {
      "bufferView": 0,
      "byteOffset": 576,
      "componentType": 5126,
      "count": 24,
      "max": [
        -11.0,
        54.0,
        9.0
      ],
      "min": [
        -16.0,
        46.0,
        3.0
      ],
      "type": "VEC3"
    },
    {
      "bufferView": 1,
      "byteOffset": 576,
      "componentType": 5126,
      "count": 24,
      "type": "VEC3"
    },
    {
      "bufferView": 2,
      "byteOffset": 144,
      "componentType": 5123,
      "count": 36,
      "type": "SCALAR"
    },
    {
      "bufferView": 0,
      "byteOffset": 864,
      "componentType": 5126,
      "count": 24,
      "max": [
        16.0,
        54.0,
        9.0
      ],
      "min": [
        11.0,
        46.0,
        3.0
      ],
      "type": "VEC3"
    },
    {
      "bufferView": 1,
      "byteOffset": 864,
      "componentType": 5126,
      "count": 24,
      "type": "VEC3"
    },
    {
      "bufferView": 2,
      "byteOffset": 216,
      "componentType": 5123,
      "count": 36,
      "type": "SCALAR"
    },
    {
      "bufferView": 0,
      "byteOffset": 1152,
      "componentType": 5126,
      "count": 24,
      "max": [
        -11.0,
        76.0,
        6.0
      ],
      "min": [
        -16.0,
        52.0,
        -6.0
      ],
      "type": "VEC3"
    },
    {
      "bufferView": 1,
      "byteOffset": 1152,
      "componentType": 5126,
      "count": 24,
      "type": "VEC3"
    },
    {
      "bufferView": 2,
      "byteOffset": 288,
      "componentType": 5123,
      "count": 36,
      "type": "SCALAR"
    },
    {
      "bufferView": 0,
      "byteOffset": 1440,
      "componentType": 5126,
      "count": 24,
      "max": [
        16.0,
        76.0,
        6.0
      ],
      "min": [
        11.0,
        52.0,
        -6.0
      ],
      "type": "VEC3"
    },
    {
      "bufferView": 1,
      "byteOffset": 1440,
      "componentType": 5126,
      "count": 24,
      "type": "VEC3"
    },
    {
      "bufferView": 2,
      "byteOffset": 360,
      "componentType": 5123,
      "count": 36,
      "type": "SCALAR"
    },
    {
      "bufferView": 0,
      "byteOffset": 1728,
      "componentType": 5126,
      "count": 24,
      "max": [
        11.0,
        94.0,
        7.0
      ],
      "min": [
        -11.0,
        56.0,
        -7.0
      ],
      "type": "VEC3"
    },
    {
      "bufferView": 1,
      "byteOffset": 1728,
      "componentType": 5126,
      "count": 24,
      "type": "VEC3"
    },
    {
      "bufferView": 2,
      "byteOffset": 432,
      "componentType": 5123,
      "count": 36,
      "type": "SCALAR"
    },
    {
      "bufferView": 0,
      "byteOffset": 2016,
      "componentType": 5126,
      "count": 24,
      "max": [
        19.0,
        110.0,
        -2.0
      ],
      "min": [
        14.0,
        46.0,
        -8.0
      ],
      "type": "VEC3"
    },
    {
      "bufferView": 1,
      "byteOffset": 2016,
      "componentType": 5126,
      "count": 24,
      "type": "VEC3"
    },
    {
      "bufferView": 2,
      "byteOffset": 504,
      "componentType": 5123,
      "count": 36,
      "type": "SCALAR"
    },
    {
      "bufferView": 0,
      "byteOffset": 2304,
      "componentType": 5126,
      "count": 24,
      "max": [
        4.0,
        94.0,
        10.0
      ],
      "min": [
        -4.0,
        58.0,
        7.0
      ],
      "type": "VEC3"
    },
    {
      "bufferView": 1,
      "byteOffset": 2304,
      "componentType": 5126,
      "count": 24,
      "type": "VEC3"
    },
    {
      "bufferView": 2,
      "byteOffset": 576,
      "componentType": 5123,
      "count": 36,
      "type": "SCALAR"
    },
    {
      "bufferView": 0,
      "byteOffset": 2592,
      "componentType": 5126,
      "count": 24,
      "max": [
        12.0,
        94.0,
        11.0
      ],
      "min": [
        -12.0,
        90.0,
        8.0
      ],
      "type": "VEC3"
    },
    {
      "bufferView": 1,
      "byteOffset": 2592,
      "componentType": 5126,
      "count": 24,
      "type": "VEC3"
    },
    {
      "bufferView": 2,
      "byteOffset": 648,
      "componentType": 5123,
      "count": 36,
      "type": "SCALAR"
    },
    {
      "bufferView": 0,
      "byteOffset": 2880,
      "componentType": 5126,
      "count": 24,
      "max": [
        26.0,
        114.0,
        -4.0
      ],
      "min": [
        19.0,
        92.0,
        -10.0
      ],
      "type": "VEC3"
    },
    {
      "bufferView": 1,
      "byteOffset": 2880,
      "componentType": 5126,
      "count": 24,
      "type": "VEC3"
    },
    {
      "bufferView": 2,
      "byteOffset": 720,
      "componentType": 5123,
      "count": 36,
      "type": "SCALAR"
    },
    {
      "bufferView": 0,
      "byteOffset": 3168,
      "componentType": 5126,
      "count": 24,
      "max": [
        8.0,
        112.0,
        12.0
      ],
      "min": [
        -8.0,
        92.0,
        2.0
      ],
      "type": "VEC3"
    },
    {
      "bufferView": 1,
      "byteOffset": 3168,
      "componentType": 5126,
      "count": 24,
      "type": "VEC3"
    },
    {
      "bufferView": 2,
      "byteOffset": 792,
      "componentType": 5123,
      "count": 36,
      "type": "SCALAR"
    },
    {
      "bufferView": 0,
      "byteOffset": 3456,
      "componentType": 5126,
      "count": 24,
      "max": [
        6.0,
        110.0,
        7.0
      ],
      "min": [
        -6.0,
        106.0,
        5.0
      ],
      "type": "VEC3"
    },
    {
      "bufferView": 1,
      "byteOffset": 3456,
      "componentType": 5126,
      "count": 24,
      "type": "VEC3"
    },
    {
      "bufferView": 2,
      "byteOffset": 864,
      "componentType": 5123,
      "count": 36,
      "type": "SCALAR"
    },
    {
      "bufferView": 0,
      "byteOffset": 3744,
      "componentType": 5126,
      "count": 24,
      "max": [
        4.0,
        128.0,
        5.0
      ],
      "min": [
        -4.0,
        106.0,
        -2.0
      ],
      "type": "VEC3"
    },
    {
      "bufferView": 1,
      "byteOffset": 3744,
      "componentType": 5126,
      "count": 24,
      "type": "VEC3"
    },
    {
      "bufferView": 2,
      "byteOffset": 936,
      "componentType": 5123,
      "count": 36,
      "type": "SCALAR"
    }
  ],
  "asset": {
    "generator": "Grandleon placeholder art generator",
    "version": "2.0"
  },
  "bufferViews": [
    {
      "buffer": 0,
      "byteLength": 4032,
      "byteOffset": 0,
      "byteStride": 12,
      "target": 34962
    },
    {
      "buffer": 0,
      "byteLength": 4032,
      "byteOffset": 4032,
      "byteStride": 12,
      "target": 34962
    },
    {
      "buffer": 0,
      "byteLength": 1008,
      "byteOffset": 8064,
      "target": 34963
    }
  ],
  "buffers": [
    {
      "byteLength": 9072,
      "uri": "mage.bin"
    }
  ],
  "materials": [
    {
      "doubleSided": false,
      "extras": {
        "ramp": 0,
        "rampName": "neutral",
        "rung": 0
      },
      "name": "neutral_ramp_rung_0",
      "pbrMetallicRoughness": {
        "baseColorFactor": [
          0.005182,
          0.005182,
          0.009134,
          1.0
        ],
        "metallicFactor": 0.0,
        "roughnessFactor": 1.0
      }
    },
    {
      "doubleSided": false,
      "extras": {
        "ramp": 0,
        "rampName": "neutral",
        "rung": 1
      },
      "name": "neutral_ramp_rung_1",
      "pbrMetallicRoughness": {
        "baseColorFactor": [
          0.124772,
          0.068478,
          0.022174,
          1.0
        ],
        "metallicFactor": 0.0,
        "roughnessFactor": 1.0
      }
    },
    {
      "doubleSided": false,
      "extras": {
        "ramp": 0,
        "rampName": "neutral",
        "rung": 2
      },
      "name": "neutral_ramp_rung_2",
      "pbrMetallicRoughness": {
        "baseColorFactor": [
          0.617207,
          0.262251,
          0.124772,
          1.0
        ],
        "metallicFactor": 0.0,
        "roughnessFactor": 1.0
      }
    },
    {
      "doubleSided": false,
      "extras": {
        "ramp": 0,
        "rampName": "neutral",
        "rung": 3
      },
      "name": "neutral_ramp_rung_3",
      "pbrMetallicRoughness": {
        "baseColorFactor": [
          0.863157,
          0.930111,
          1.0,
          1.0
        ],
        "metallicFactor": 0.0,
        "roughnessFactor": 1.0
      }
    },
    {
      "doubleSided": false,
      "extras": {
        "ramp": 1,
        "rampName": "faction",
        "rung": 1
      },
      "name": "faction_ramp_rung_1",
      "pbrMetallicRoughness": {
        "baseColorFactor": [
          0.005182,
          0.084376,
          0.198069,
          1.0
        ],
        "metallicFactor": 0.0,
        "roughnessFactor": 1.0
      }
    },
    {
      "doubleSided": false,
      "extras": {
        "ramp": 1,
        "rampName": "faction",
        "rung": 2
      },
      "name": "faction_ramp_rung_2",
      "pbrMetallicRoughness": {
        "baseColorFactor": [
          0.015209,
          0.171441,
          0.417885,
          1.0
        ],
        "metallicFactor": 0.0,
        "roughnessFactor": 1.0
      }
    },
    {
      "doubleSided": false,
      "extras": {
        "ramp": 1,
        "rampName": "faction",
        "rung": 3
      },
      "name": "faction_ramp_rung_3",
      "pbrMetallicRoughness": {
        "baseColorFactor": [
          0.084376,
          0.376262,
          0.730461,
          1.0
        ],
        "metallicFactor": 0.0,
        "roughnessFactor": 1.0
      }
    }
  ],
  "meshes": [
    {
      "name": "00_robe_skirt",
      "primitives": [
        {
          "attributes": {
            "NORMAL": 1,
            "POSITION": 0
          },
          "indices": 2,
          "material": 4,
          "mode": 4
        }
      ]
    },
    {
      "name": "01_fold_skirt",
      "primitives": [
        {
          "attributes": {
            "NORMAL": 4,
            "POSITION": 3
          },
          "indices": 5,
          "material": 6,
          "mode": 4
        }
      ]
    },
    {
      "name": "02_left_hand",
      "primitives": [
        {
          "attributes": {
            "NORMAL": 7,
            "POSITION": 6
          },
          "indices": 8,
          "material": 2,
          "mode": 4
        }
      ]
    },
    {
      "name": "03_right_hand",
      "primitives": [
        {
          "attributes": {
            "NORMAL": 10,
            "POSITION": 9
          },
          "indices": 11,
          "material": 2,
          "mode": 4
        }
      ]
    },
    {
      "name": "04_left_sleeve",
      "primitives": [
        {
          "attributes": {
            "NORMAL": 13,
            "POSITION": 12
          },
          "indices": 14,
          "material": 4,
          "mode": 4
        }
      ]
    },
    {
      "name": "05_right_sleeve",
      "primitives": [
        {
          "attributes": {
            "NORMAL": 16,
            "POSITION": 15
          },
          "indices": 17,
          "material": 4,
          "mode": 4
        }
      ]
    },
    {
      "name": "06_robe_chest",
      "primitives": [
        {
          "attributes": {
            "NORMAL": 19,
            "POSITION": 18
          },
          "indices": 20,
          "material": 5,
          "mode": 4
        }
      ]
    },
    {
      "name": "07_shaku",
      "primitives": [
        {
          "attributes": {
            "NORMAL": 22,
            "POSITION": 21
          },
          "indices": 23,
          "material": 1,
          "mode": 4
        }
      ]
    },
    {
      "name": "08_fold_chest",
      "primitives": [
        {
          "attributes": {
            "NORMAL": 25,
            "POSITION": 24
          },
          "indices": 26,
          "material": 6,
          "mode": 4
        }
      ]
    },
    {
      "name": "09_collar",
      "primitives": [
        {
          "attributes": {
            "NORMAL": 28,
            "POSITION": 27
          },
          "indices": 29,
          "material": 3,
          "mode": 4
        }
      ]
    },
    {
      "name": "10_ofuda",
      "primitives": [
        {
          "attributes": {
            "NORMAL": 31,
            "POSITION": 30
          },
          "indices": 32,
          "material": 3,
          "mode": 4
        }
      ]
    },
    {
      "name": "11_face",
      "primitives": [
        {
          "attributes": {
            "NORMAL": 34,
            "POSITION": 33
          },
          "indices": 35,
          "material": 2,
          "mode": 4
        }
      ]
    },
    {
      "name": "12_eboshi_cord",
      "primitives": [
        {
          "attributes": {
            "NORMAL": 37,
            "POSITION": 36
          },
          "indices": 38,
          "material": 3,
          "mode": 4
        }
      ]
    },
    {
      "name": "13_eboshi",
      "primitives": [
        {
          "attributes": {
            "NORMAL": 40,
            "POSITION": 39
          },
          "indices": 41,
          "material": 0,
          "mode": 4
        }
      ]
    }
  ],
  "nodes": [
    {
      "children": [
        1,
        2,
        3,
        4,
        5,
        6,
        7,
        8,
        9,
        10,
        11,
        12,
        13,
        14
      ],
      "extras": {
        "archetype": "mage",
        "axes": "figure space is x right, y up, z away and is left-handed; glTF is y up, right-handed, -z forward, so z is negated and nothing else is",
        "bakedFaction": "blue",
        "partCount": 14,
        "partOrder": "authored far-to-near at the shipped pitch; node order and the index prefix on every node name both carry it",
        "pitchDegrees": 60,
        "rampFaction": 1,
        "rampNeutral": 0,
        "rungCount": 4,
        "silhouetteArea": 393,
        "silhouetteHeight": 32,
        "silhouetteWidth": 19,
        "style": "sengoku",
        "triangleCount": 168,
        "unitWorld": 64,
        "worldHeight": 128
      },
      "name": "mage",
      "scale": [
        0.015625,
        0.015625,
        0.015625
      ]
    },
    {
      "extras": {
        "part": 0,
        "partName": "robe, skirt",
        "ramp": 1,
        "rampName": "faction",
        "rung": 1
      },
      "mesh": 0,
      "name": "00_robe_skirt"
    },
    {
      "extras": {
        "part": 1,
        "partName": "fold, skirt",
        "ramp": 1,
        "rampName": "faction",
        "rung": 3
      },
      "mesh": 1,
      "name": "01_fold_skirt"
    },
    {
      "extras": {
        "part": 2,
        "partName": "left hand",
        "ramp": 0,
        "rampName": "neutral",
        "rung": 2
      },
      "mesh": 2,
      "name": "02_left_hand"
    },
    {
      "extras": {
        "part": 3,
        "partName": "right hand",
        "ramp": 0,
        "rampName": "neutral",
        "rung": 2
      },
      "mesh": 3,
      "name": "03_right_hand"
    },
    {
      "extras": {
        "part": 4,
        "partName": "left sleeve",
        "ramp": 1,
        "rampName": "faction",
        "rung": 1
      },
      "mesh": 4,
      "name": "04_left_sleeve"
    },
    {
      "extras": {
        "part": 5,
        "partName": "right sleeve",
        "ramp": 1,
        "rampName": "faction",
        "rung": 1
      },
      "mesh": 5,
      "name": "05_right_sleeve"
    },
    {
      "extras": {
        "part": 6,
        "partName": "robe, chest",
        "ramp": 1,
        "rampName": "faction",
        "rung": 2
      },
      "mesh": 6,
      "name": "06_robe_chest"
    },
    {
      "extras": {
        "part": 7,
        "partName": "shaku",
        "ramp": 0,
        "rampName": "neutral",
        "rung": 1
      },
      "mesh": 7,
      "name": "07_shaku"
    },
    {
      "extras": {
        "part": 8,
        "partName": "fold, chest",
        "ramp": 1,
        "rampName": "faction",
        "rung": 3
      },
      "mesh": 8,
      "name": "08_fold_chest"
    },
    {
      "extras": {
        "part": 9,
        "partName": "collar",
        "ramp": 0,
        "rampName": "neutral",
        "rung": 3
      },
      "mesh": 9,
      "name": "09_collar"
    },
    {
      "extras": {
        "part": 10,
        "partName": "ofuda",
        "ramp": 0,
        "rampName": "neutral",
        "rung": 3
      },
      "mesh": 10,
      "name": "10_ofuda"
    },
    {
      "extras": {
        "part": 11,
        "partName": "face",
        "ramp": 0,
        "rampName": "neutral",
        "rung": 2
      },
      "mesh": 11,
      "name": "11_face"
    },
    {
      "extras": {
        "part": 12,
        "partName": "eboshi cord",
        "ramp": 0,
        "rampName": "neutral",
        "rung": 3
      },
      "mesh": 12,
      "name": "12_eboshi_cord"
    },
    {
      "extras": {
        "part": 13,
        "partName": "eboshi",
        "ramp": 0,
        "rampName": "neutral",
        "rung": 0
      },
      "mesh": 13,
      "name": "13_eboshi"
    }
  ],
  "scene": 0,
  "scenes": [
    {
      "name": "mage",
      "nodes": [
        0
      ]
    }
  ]
}
